<svg transform="scale(1)" version="1.1" id="Layer_1" xmlns="http://www.w3.org/2000/svg" xmlns:xlink="http://www.w3.org/1999/xlink" x="0px" y="0px" viewBox="0 0 500 500" xml:space="preserve" class="show_show__wrapper__graphic__5Waiy "><title>React</title><style type="text/css">
	.st0{fill:#FFFFFF;}
	.st1{fill:#000005;}
	.st2{fill:none;}
	.st3{fill:#fabb32;}
	.st4{opacity:0.41;}
</style><g id="paperplane"><path class="st0" d="M427.1,95.8c0,0,13.3-8.2,12.4-9s-48.4-14.7-48.7-10.4s9.6,29.2,12,29.1s9-2.9,9-2.9s11.4,12.8,12.5,12.4
		S427.1,95.8,427.1,95.8z"></path><path class="st1" d="M428.4,97.5c3.2-2,6.4-4,9.5-6.2c1.3-0.9,3.2-2,3.9-3.5s-0.5-2.6-1.8-3.1c-7.2-2.5-14.6-4.6-22-6.4
		c-4.7-1.2-9.4-2.4-14.2-3.3c-3.5-0.9-7.1-1.3-10.7-1.4c-1.3-0.1-2.7,0.3-3.8,1c-1.3,1.1-1,2.7-0.7,4.1c1,4.5,2.4,8.9,4.2,13.1
		c1.6,4.5,3.7,8.9,6.1,13c0.9,1.4,2.1,2.8,3.9,2.8c2.8,0,5.8-1.4,8.3-2.4c0.7-0.2,1.3-0.5,2-0.8l-3.4-0.7c1.5,1.7,3.1,3.4,4.6,5.1
		c2.2,2.6,4.6,5,7.2,7.1c1.3,1,3.2,1.8,4.6,0.5c0.7-0.8,1.2-1.7,1.3-2.8c0.6-3.4,1.1-6.8,1.4-10.2c0.3-2.6,0.5-5.1,0.7-7.7
		s-4.8-2.6-5,0.1c-0.1,1.8-0.3,3.6-0.5,5.4s-0.3,3.3-0.5,5c-0.1,0.7-0.2,1.5-0.3,2.2c0,0.4-0.1,0.8-0.2,1.2l-0.1,0.7
		c0,0.1-0.1,0.7,0,0.3c-0.2,1.1-0.4,2.1-0.6,3.2c0,0.1-0.2,0.3-0.2,0.4c-0.1-1.1,2.4-1.3,3.2-1c-0.4-0.2,0.1,0.1,0.1,0.1
		s-0.4-0.3-0.5-0.4c-2.2-1.8-4.2-3.9-6.1-6c-1.6-1.8-3.3-3.5-4.9-5.3c-0.9-1-2.3-1.2-3.4-0.7c-1.7,0.7-3.4,1.4-5.1,1.9
		c-0.6,0.2-1.1,0.3-1.7,0.5c-0.3,0.1-0.5,0.1-0.8,0.2s-0.2,0.1-0.1,0s0.2,0,0,0l0.6,0.1c0.3,0.1,0.6,0.2,0.8,0.4l-0.2-0.2
		c-0.3-0.3,0.3,0.4,0.1,0.1c-0.1-0.1-0.2-0.2-0.3-0.3c-0.4-0.5-0.8-1.1-1.1-1.7l-0.5-1l-0.6-1.2c-1-2.1-2-4.2-2.9-6.4
		c-1.9-4.3-3.5-8.7-4.8-13.2c-0.2-0.8-0.4-1.6-0.6-2.4c-0.1-0.4,0,0.4,0-0.1c0-0.2,0-0.3-0.1-0.4c0-0.2,0-0.5,0-0.7
		c0,0.2-0.1,0.4-0.2,0.7c0.1-0.2-0.5,0.5-0.2,0.3c-0.1,0.1-0.6,0.4-0.3,0.2c-0.1,0-0.6,0.2-0.1,0.1c0.7-0.1-0.6,0,0.1,0
		c0.5,0,1.1,0,1.6,0c0.3,0,0.6,0,0.9,0.1c0.6,0-0.5-0.1,0,0l0.6,0.1c1.7,0.2,3.4,0.5,5.1,0.8c4.3,0.8,8.6,1.8,12.8,2.9
		c7.6,1.9,15.1,3.9,22.6,6.3l0.5,0.2l0.4,0.1c0.3,0.1,0.6,0.2,0.9,0.3c0,0,0.2,0.1,0.2,0.1c-0.3,0.1-0.7-0.8-0.8-0.9
		c-0.3-0.4-0.3-0.9-0.1-1.4c-0.2,0.3-0.1,0.1,0.1-0.1c-0.1,0.1-0.2,0.2-0.3,0.3c-0.3,0.3-0.6,0.5-0.9,0.8c-1.6,1.3-3.4,2.5-5.1,3.6
		l-1.4,0.9l-0.5,0.3l-0.5,0.3l-2,1.3l-0.8,0.5c-1,0.6-1.6,1.7-0.9,2.8C425.8,97.8,427.2,98.1,428.4,97.5z"></path><path class="st0" d="M399.3,82.9c0,0,21.9,14.9,22.5,15.9s2.6,16.1,2.6,16.1"></path><path class="st1" d="M398.9,84.3c4.8,3.3,9.6,6.6,14.4,10c2.5,1.7,5,3.4,7.4,5.3l0.4,0.3c-0.1,0.1-0.6-0.6-0.6-0.7
		s-0.4-0.7-0.3-0.4c-0.4-0.6-0.1-0.4-0.1-0.2s0.1,0.6,0.2,0.8c0.3,1.6,0.6,3.2,0.8,4.8c0.5,3.2,0.9,6.5,1.3,9.7
		c0.2,1.2,0.9,2.2,2,2.8c0.6,0.3,2.1,0.5,2-0.7c-0.4-2.9-0.8-5.8-1.2-8.7c-0.3-2-0.6-3.9-1-5.9c-0.1-1.3-0.7-2.6-1.5-3.7
		c-1.9-1.9-4.4-3.4-6.5-4.9c-3.4-2.4-6.7-4.7-10.1-7.1l-6.2-4.3c-0.6-0.4-2-1.1-2.4-0.1S398.1,83.9,398.9,84.3L398.9,84.3z"></path><line class="st2" x1="405.3" y1="104.3" x2="421.8" y2="98.9"></line><path class="st1" d="M406.9,106.2l14.4-4.8l2.1-0.7c0.4-0.1-1.1-2.1-1.3-2.2c-0.3-0.4-1.4-1.8-2-1.6l-14.4,4.8l-2.1,0.7
		c-0.4,0.1,1.1,2.1,1.2,2.2C405.2,105,406.3,106.4,406.9,106.2L406.9,106.2z"></path><line class="st2" x1="399.3" y1="82.9" x2="425.8" y2="94.3"></line><path class="st1" d="M397.1,83.8l23.2,10l3.3,1.4c0.8,0.4,2.3-0.3,3-0.6c0.2-0.1,2-0.9,1.4-1.2l-23.2-10l-3.2-1.4
		c-0.8-0.3-2.3,0.3-3,0.6C398.4,82.7,396.6,83.5,397.1,83.8L397.1,83.8z"></path><path class="st1" d="M427.6,131l7.4,24.2c2.4,7.9,5,15.7,6.8,23.8c3,13.5,3.1,30-7.1,40.7c-4.2,4.4-10.3,7.6-16.5,7.7
		c-5.5,0.1-11.7-4.4-12.1-10.2c-0.2-2.7,1.3-5.3,3.6-6.6c0.6-0.3,1.1-0.5,1.8-0.7l0.5-0.1c0-0.1-1.1-0.1-1.1-0.2l0.3,0.2
		c1.2,1.2,2.3,2.6,3,4.1c3.5,6.6,5.4,13.9,5.6,21.4c0.2,6.7-1.7,13.3-5.4,18.9c-3.4,5.2-8.4,9.1-14.3,11c-1.4,0.4-2.9,0.7-4.5,0.9
		c-0.9,0.1-0.9,0.5-0.1,0.8c1.1,0.5,2.3,0.7,3.5,0.6c14.3-1.2,24.4-14.1,25.6-27.8c0.7-8-1.3-16.1-4.6-23.4
		c-0.7-1.8-1.7-3.6-2.9-5.2c-1.1-1.2-2.7-2.1-4.3-2.4c-3.1-0.8-6.5-0.5-9,1.7c-2.3,2-3.1,5.3-2.1,8.1c1.2,3.1,3.5,5.7,6.5,7.2
		c6.6,3.4,14.3,3.9,21.3,1.4c14.7-5.3,20-21.5,19.1-35.9c-0.6-8.9-3.1-17.6-5.7-26.1c-2.7-8.9-5.5-17.9-8.2-26.8l-2-6.6
		c-0.2-0.7-1.8-0.9-2.4-1C430,130.8,427.5,130.5,427.6,131L427.6,131z"></path></g><g id="post"><rect class="st0" x="91.4" y="69.7" width="277.5" height="368.1"></rect><path class="st1" d="M368,435.6H101.8c-3.6,0-7.3-0.3-10.8,0c-0.2,0-0.3,0-0.5,0l2.4,3.9V76.9c0.1-1.6,0.1-3.3,0-4.9
		c0-0.2,0-0.4,0-0.6L92.4,72h266.2c3.6,0,7.3,0.3,10.8,0c0.1,0,0.3,0,0.5,0l-2.4-3.9v353.2c0,4.8,0,9.5,0,14.3v0.6
		c0.1,1.2,0.5,2.3,1.4,3.2c0.3,0.4,1.6,1.3,1.6,0.2V86.3c0-4.8,0-9.6,0-14.3v-0.6c0-1.1-1-3.9-2.4-3.9H101.8c-3.6,0-7.3-0.3-10.8,0
		c-0.2,0-0.3,0-0.5,0c-0.3,0-0.5,0.2-0.5,0.5c0,0,0,0,0,0.1v353.2c0,4.8,0,9.5,0,14.3v0.6c0,1,1,3.9,2.4,3.9h266.2
		c3.6,0,7.3,0.3,10.8,0h0.5C371.2,440.1,369.4,435.6,368,435.6z"></path><rect class="st3" x="114.7" y="95.2" width="229.5" height="235.5"></rect><path class="st3" d="M343.1,328.6H122.9c-3,0-6-0.1-8.9,0h-0.4l2.4,4.2V98.1c0-0.3,0-0.5,0-0.8c-0.1-0.2-0.4,0-0.2,0
		c0.8,0.1,1.6,0.1,2.4,0h227l-2.4-4.2v226c0,3.1,0,6.1,0,9.2v0.4c0.1,1.1,0.5,2.1,1.1,2.9c0.1,0.1,1.5,1.8,1.5,1.1V97.2
		c-0.1-0.8-0.4-1.6-0.8-2.3c-0.3-0.4-1-1.8-1.6-1.8H122.9c-3,0-5.9,0-8.9,0h-0.4c-0.1,0-0.2,0-0.2,0.1c0,0,0,0.1,0,0.1v226
		c0,3.1,0,6.1,0,9.2v0.4c0.1,0.8,0.4,1.6,0.8,2.3c0.3,0.4,1,1.9,1.6,1.9h229.5c0.7,0-0.1-1.6-0.2-1.9
		C344.8,330.5,343.8,328.6,343.1,328.6z"></path><g class="st4"><circle class="st3" cx="208.3" cy="358.2" r="4.9"></circle><path class="st3" d="M210.8,357.9c0,0.1,0,0.3,0,0.4c0-0.4,0-0.1,0,0c0,0.2-0.1,0.4-0.2,0.6c-0.1,0.2-0.1,0.4-0.2,0.6
			c0,0.1-0.2,0.4,0,0.1l-0.2,0.3c-0.2,0.4-0.5,0.7-0.9,0.9L209,361l-0.2,0.1c-0.1,0-0.5,0.2-0.2,0.1h-0.1c-0.1,0-0.2,0.1-0.3,0.1
			c-0.3,0.1-0.2-0.1,0.1,0c-0.1,0-0.2,0-0.3,0h-0.3c-0.5,0,0.5,0,0.1,0h-0.3c-0.5-0.1,0.6,0.2,0.1,0c-0.1,0-0.3-0.1-0.4-0.1
			c0,0,0.6,0.3,0.3,0.1l-0.3-0.2c-0.2-0.1-0.2-0.2,0.2,0.1c-0.1-0.1-0.4-0.3-0.5-0.4c-0.3-0.3,0.2,0.3,0.1,0.1s-0.2-0.2-0.3-0.3
			l-0.2-0.2c-0.3-0.4,0.2,0.4,0,0c-0.1-0.2-0.2-0.4-0.3-0.6c0-0.1-0.1-0.2-0.1-0.2c-0.2-0.4,0.1,0.4,0-0.1c0-0.2-0.1-0.5-0.1-0.7
			c0-0.2,0-0.4,0-0.6c0-0.4-0.1,0.3,0-0.1c0-0.1,0-0.2,0-0.3s0.1-0.4,0.2-0.6l0.1-0.4c0-0.1,0.2-0.4,0-0.1c0.2-0.4,0.5-0.7,0.8-1
			c0.1-0.1,0.2-0.1,0.2-0.2s-0.3,0.2,0,0s0.4-0.3,0.7-0.4c0.1,0,0.1-0.1,0.2-0.1l-0.2,0.1l0.2-0.1l0.2-0.1c0.1,0,0.4,0,0.1,0
			s0.1,0,0.1,0h0.3c0.3,0,0.2,0.1-0.1,0c0.1,0,0.3,0,0.4,0c0.5,0-0.6-0.2-0.1,0c0.1,0,0.3,0.1,0.4,0.1c-0.6-0.1-0.4-0.2-0.2-0.1
			c0.1,0.1,0.3,0.2,0.4,0.2c-0.4-0.1-0.4-0.3-0.2-0.1l0.4,0.3c0.2,0.2,0,0.1-0.1-0.1c0.1,0.1,0.2,0.2,0.3,0.3l0.2,0.3
			c0.3,0.4-0.2-0.4,0,0c0.1,0.2,0.2,0.5,0.3,0.7c0,0,0.1,0.4,0.1,0.2s0.1,0.2,0.1,0.3C210.7,357.4,210.7,357.6,210.8,357.9
			c0,0.5,0.3,1,0.8,1.3c0.5,0.4,1.1,0.6,1.8,0.7c1,0.1,2.3-0.1,2.3-1.3c-0.1-6.3-9.2-9.3-13.2-4.6c-1.6,2-1.9,4.8-0.6,7
			c1.8,2.8,5,4.3,8.3,3.8c3.1-0.4,5.4-3,5.4-6.2c-0.1-0.5-0.4-1-0.8-1.3c-0.5-0.4-1.1-0.7-1.8-0.7
			C212,356.5,210.8,356.7,210.8,357.9z"></path></g><circle class="st3" cx="229.2" cy="357.6" r="4.9"></circle><path class="st3" d="M231.6,357.3c0,0.1,0,0.3,0,0.4c0-0.3,0-0.1,0,0s-0.1,0.4-0.1,0.6c-0.1,0.2-0.1,0.4-0.2,0.6
		c0,0.1-0.2,0.4,0,0.1l-0.2,0.3c-0.2,0.4-0.5,0.7-0.9,0.9l-0.3,0.2l-0.2,0.1c-0.1,0-0.5,0.2-0.2,0.1s-0.1,0-0.1,0l-0.3,0.1
		c-0.3,0.1-0.2-0.1,0.1,0c-0.1,0-0.2,0-0.3,0h-0.4c-0.5,0,0.5,0.1,0.1,0l-0.3,0c-0.5,0,0.6,0.2,0.1,0c-0.1,0-0.3-0.1-0.4-0.1
		s0.6,0.3,0.2,0.1l-0.3-0.2c-0.2-0.1-0.2-0.2,0.2,0.1c-0.1-0.1-0.3-0.3-0.5-0.4c-0.3-0.3,0.2,0.3,0.1,0.1s-0.2-0.2-0.3-0.3l-0.1-0.2
		c-0.3-0.4,0.2,0.4,0,0c-0.1-0.2-0.2-0.4-0.3-0.6l-0.1-0.2c-0.2-0.4,0.1,0.4,0-0.1c0-0.2-0.1-0.5-0.1-0.7s0-0.4,0-0.6
		c0-0.4-0.1,0.3,0-0.1c0-0.1,0-0.2,0-0.3c0-0.2,0.1-0.4,0.2-0.6c0-0.1,0.1-0.2,0.1-0.4s0.2-0.4,0-0.1c0.2-0.4,0.5-0.7,0.8-1
		c0.1-0.1,0.2-0.1,0.2-0.2c0.2-0.2-0.4,0.2,0,0s0.4-0.3,0.7-0.4c0.1,0,0.2-0.1,0.2-0.1l-0.2,0.1l0.2-0.1l0.2-0.1c0.1,0,0.4,0,0.1,0
		s0,0,0.1,0h0.3c0.3,0,0.2,0.1-0.1,0c0.1,0,0.3,0,0.4,0c0.5,0-0.6-0.2-0.1,0c0.1,0.1,0.2,0.1,0.4,0.1c-0.5-0.1-0.4-0.2-0.2-0.1
		c0.1,0.1,0.3,0.1,0.4,0.2c-0.4-0.1-0.4-0.3-0.2-0.1l0.4,0.3c0.2,0.2,0,0.1-0.1-0.1c0,0.1,0.2,0.2,0.3,0.3l0.2,0.3
		c0.3,0.3-0.2-0.4,0,0c0.1,0.2,0.2,0.5,0.3,0.7c0,0,0.1,0.4,0,0.1s0.1,0.2,0.1,0.3C231.5,356.7,231.6,357,231.6,357.3
		c0,0.5,0.3,1,0.7,1.2c0.5,0.4,1.1,0.7,1.8,0.7c1,0.1,2.3-0.1,2.3-1.4c-0.1-6.2-9.2-9.3-13.2-4.6c-1.6,2-1.9,4.8-0.6,7
		c1.8,2.8,5,4.3,8.3,3.8c3.1-0.4,5.4-3,5.5-6.2c-0.1-0.5-0.4-1-0.8-1.2c-0.5-0.4-1.1-0.7-1.8-0.7
		C232.9,355.8,231.6,356.1,231.6,357.3z"></path><g class="st4"><circle class="st3" cx="249.9" cy="358" r="4.9"></circle><path class="st3" d="M252.3,357.6c0,0.1,0,0.3,0,0.4c0-0.3,0-0.1,0,0c-0.1,0.2-0.1,0.4-0.1,0.6c-0.1,0.2-0.1,0.4-0.2,0.6
			c0,0.1-0.2,0.4,0,0.1c-0.1,0.1-0.1,0.2-0.2,0.3c-0.2,0.4-0.5,0.7-0.9,0.9l-0.3,0.2l-0.2,0.1c-0.1,0-0.5,0.2-0.2,0.1s-0.1,0-0.1,0
			l-0.3,0.1c-0.3,0.1-0.2-0.1,0.1,0c-0.1,0-0.2,0-0.3,0h-0.3c-0.5,0,0.4,0,0.1,0l-0.3,0c-0.5,0,0.6,0.2,0.1,0c-0.1,0-0.3,0-0.4-0.1
			s0.6,0.3,0.3,0.1l-0.4-0.2c-0.2-0.1-0.2-0.2,0.2,0.1c-0.1-0.1-0.4-0.3-0.5-0.4c-0.3-0.3,0.2,0.3,0.1,0.1s-0.2-0.2-0.3-0.3
			l-0.1-0.2c-0.3-0.4,0.2,0.4,0,0c-0.1-0.2-0.2-0.4-0.3-0.6c0-0.1-0.1-0.2-0.1-0.2c-0.1-0.4,0.1,0.4,0-0.1c0-0.2-0.1-0.5-0.1-0.7
			s0-0.4,0-0.6c0-0.4-0.1,0.3,0-0.1c0-0.1,0-0.2,0-0.3c0-0.2,0.1-0.4,0.2-0.6c0-0.1,0.1-0.2,0.1-0.4c0-0.1,0.2-0.4,0-0.1
			c0.2-0.4,0.5-0.7,0.8-1c0.1-0.1,0.2-0.1,0.2-0.2c0.2-0.2-0.4,0.2,0,0c0.2-0.1,0.4-0.3,0.7-0.4c0.1,0,0.1-0.1,0.2-0.1l-0.2,0.1
			l0.2-0.1l0.2-0.1c0.1,0,0.4,0,0.1,0s0,0,0.1,0h0.3c0.3,0,0.2,0.1-0.1,0c0.1,0,0.3,0,0.4,0c0.5,0-0.6-0.2-0.1,0
			c0.1,0.1,0.2,0.1,0.4,0.1c-0.6-0.1-0.4-0.2-0.2-0.1s0.3,0.2,0.4,0.2c-0.4-0.1-0.4-0.3-0.2-0.1l0.4,0.3c0.2,0.2,0,0.1-0.1-0.1
			c0,0.1,0.2,0.2,0.2,0.3l0.2,0.3c0.3,0.3-0.2-0.4,0,0c0.1,0.2,0.2,0.5,0.3,0.7c0,0,0.1,0.4,0.1,0.1s0,0.2,0,0.3
			C252.2,357.1,252.3,357.4,252.3,357.6c0,0.5,0.3,1,0.8,1.3c0.5,0.4,1.1,0.7,1.8,0.7c1,0.1,2.3-0.1,2.3-1.4c0-6.3-9.1-9.3-13.1-4.6
			c-1.7,2-1.9,4.8-0.6,7c1.8,2.8,5,4.3,8.3,3.8c3.1-0.4,5.4-3,5.5-6.2c-0.1-0.5-0.4-1-0.8-1.2c-0.5-0.4-1.1-0.7-1.8-0.7
			C253.6,356.2,252.3,356.4,252.3,357.6z"></path></g><path class="st1" d="M123.4,358.5c-0.7-0.4-1.3-0.8-1.9-1.2c-0.3-0.3-0.7-0.5-1-0.9c-0.2-0.2-0.5-0.4-0.7-0.7
		c-0.5-0.6-1-1.2-1.4-1.8c0.1,0.2-0.2-0.3-0.2-0.4l-0.3-0.6c0-0.1-0.2-0.6-0.1-0.2c-0.1-0.2-0.1-0.4-0.2-0.6c-0.1-0.4,0,0.5,0-0.2
		c0-0.1,0-0.4,0-0.1c0-0.2,0-0.3,0.2-0.5c0.5-0.5,1.2-0.8,1.9-1.1c0.1,0,0.8-0.1,0.4-0.1c-0.2,0,0-0.1,0.1,0.1
		c0.2,0.2,0.3,0.4,0.5,0.6c0.6,0.8,1.2,1.7,1.8,2.5c0.7,1,2.8,1.4,3.4-0.1c0.4-1.1,0.8-2.2,1.3-3.2c0.2-0.4,0.4-0.7,0.6-1
		c0.3-0.3,0,0,0.3-0.2s-0.1-0.1,0.3-0.1c0,0,0.6,0,0.3,0c0,0,0.7,0.1,0.3,0c0.2,0.1,0.4,0.1,0.6,0.3c-0.4-0.2,0.2,0.1,0.2,0.2
		c-0.3-0.3,0.2,0.3-0.1-0.1c0.1,0.2,0.2,0.4,0.3,0.6c-0.2-0.5,0,0.2,0.1,0.3c0,0.3,0.1,0.3,0,0.1c0,0.1,0,0.2,0,0.4
		c0,0.9-0.2,1.7-0.6,2.5c-0.5,1-1.1,1.9-1.7,2.8c-1.4,1.9-2.9,3.6-4.7,5.1c-2,1.8,1,5.8,3.2,3.8c2.3-2.1,4.3-4.4,6-7
		c1.7-2.6,2.8-5.7,1.9-8.8s-3.6-5.5-6.9-5.1s-4.3,3.9-5.4,6.5l3.4-0.1c-1.6-2.3-3.4-5.6-6.7-5c-2.8,0.5-5.4,2.6-5.6,5.6
		c-0.1,2.7,1.5,5.2,3.1,7.2c1.7,2,3.8,3.6,6.1,4.8c1,0.4,2.1,0,2.5-1c0.1-0.1,0.1-0.2,0.1-0.4C125.3,360.4,124.6,359.1,123.4,358.5
		L123.4,358.5z"></path><path class="st1" d="M152.3,359.9c-0.7,0.4-1.4,0.8-2.1,1.1l-0.4,0.1c-0.4,0.2,0.1,0,0.1,0c-0.2,0-0.5,0-0.7,0
		c-1.5-0.2-2.9-1.1-3.6-2.5c-1.3-2.6-1.7-6.6-0.2-9.2c0.6-1,1.5-1.9,2.6-2.4c0.2-0.1,0.4-0.2,0.6-0.2l0.3-0.1l0.3-0.1
		c0.3-0.1,0.1,0,0,0l0.5-0.1l0.9-0.1c3.2-0.3,5.1,3.4,5.6,6.1c0.2,0.8,0.2,1.6,0.1,2.5c-0.1,0.8-0.7,1.5-0.8,2.3s0.9,1.9,1.3,2.5
		l1.9,2.8l2.9-1.4c-1.4,0.1-2.9-0.1-4.2-0.6c-1-0.2-2.1-0.1-3.1,0.4c-0.2,0.1-2.1,0.9-1.5,1.2c2.5,0.8,5.2,1,7.8,0.6
		c0.1,0,3.3-0.8,2.9-1.4l-2.1-3.1c-0.3-0.4-0.6-0.8-0.8-1.2c-0.4-0.7-0.3-0.9,0-1.6c0.7-1.7,0.8-3.6,0.2-5.3
		c-0.5-1.9-1.6-3.5-3.1-4.7c-1.8-1.2-4.3-0.8-6.4-0.5c-3.6,0.6-8.2,1.8-10.5,5.1c-1.1,1.7-1.5,3.8-1.2,5.8c0,1.9,0.7,3.8,1.8,5.3
		c1.5,1.8,3.9,2,6.2,1.8c2.9-0.4,5.6-1.4,8.1-2.9c0.1-0.1,0.7-0.4,0.6-0.6s-0.7-0.2-0.8-0.2C154.5,359.1,153.4,359.4,152.3,359.9
		L152.3,359.9z"></path><path class="st1" d="M175.8,353.6c-1.9-2-3.6-4.1-5.1-6.4l-2.4,2.2c5.6-0.4,11.2-0.1,16.7,1l-1.5-2.4c-3.7,4.9-5.3,11.1-9.6,15.5
		l4.6,0.3c-0.7-3-1.4-6.1-2.1-9.1c-0.1-0.3-0.1-1-0.4-0.1c-0.2,0.1-0.2,0.1,0.2-0.1l0.5-0.2l2-1l4.2-2.2c0.9-0.4,1.7-1.4,0.9-2.3
		c-0.9-0.8-2.3-1-3.4-0.5l-4.9,2.5c-1.3,0.7-3.9,1.4-4,3.2c0,0.9,0.2,1.8,0.5,2.7l0.6,2.7l1.2,5.4c0.2,0.8,1.5,1.1,2.1,1.1
		c0.9,0.1,1.8-0.2,2.5-0.8c4.4-4.4,5.9-10.7,9.6-15.5c0.9-1.2-0.4-2.2-1.5-2.4c-5.9-1.1-12-1.5-18-1.1c-0.8,0.1-3.2,0.8-2.4,2.2
		c1.6,2.6,3.5,5,5.6,7.2c0.9,0.8,2.3,1,3.4,0.5c0.9-0.4,1.7-1.4,0.9-2.3L175.8,353.6z"></path><path class="st1" d="M330.5,353.6c-2.4,2.1-4.6,4.4-6.6,6.8l3.9,1.9l-1.1-15.1v-0.4c0-0.6-0.3-0.3-0.8,0.9c0.1,0.1,0.8,0,0.9,0h1.9
		c1.2,0,2.5,0,3.7,0.1s2.5,0.1,3.7,0.2c0.6,0,1.2,0.1,1.9,0.1l0.9,0.1h0.4c0.5,0.1,0.5,0-0.1-0.1l-0.9-0.9c-0.2-0.7-0.3-0.8-0.2-0.2
		v0.4l0.1,1.1l0.2,2.2l0.5,4.5l1,8.9l2.9-1.9c-3.3-1.9-6.2-4.5-8.5-7.6c-0.7-0.9-1.9-1.7-3-1s-0.9,2.3-0.3,3.2
		c2.8,3.8,6.3,7,10.4,9.4c0.8,0.6,2,0.4,2.5-0.4c0.3-0.4,0.4-1,0.3-1.5l-1.2-11l-0.6-5.4c0-1-0.2-1.9-0.7-2.8
		c-0.6-1-1.6-1.6-2.8-1.7c-3.6-0.4-7.2-0.6-10.8-0.6c-1.6,0-4.2-0.4-5.3,1.1c-0.4,0.8-0.6,1.8-0.4,2.7c0.1,0.9,0.1,1.9,0.2,2.8
		l1,12.5c0.1,1.7,2.5,3.4,3.9,1.9c1.8-2.2,3.8-4.2,5.9-6.1c0.9-0.8,1-2.2,0.3-3.2C333,353.8,331.4,352.8,330.5,353.6L330.5,353.6z"></path><path class="st1" d="M115.7,407.4c4-1.7,7.8-3.6,11.5-5.9c3.6-2.1,7-4.4,10.2-7.1c2.7-2.4,5.5-5.5,6.2-9.2c0.3-1.7,0.1-3.4-0.6-5
		c-0.9-1.8-2.9-2.1-4.7-2c-7.6,0.3-13.1,6.9-14.2,14.1c-1,6.8,1.4,14.3,7.3,18.2s14.6,3.8,20.2-0.5c2.7-2.1,5.1-5.8,3.5-9.2
		c-1.6-3.6-6-4.5-9.4-2.8s-4.3,5.6-2.6,8.9c1.6,3,4.4,5.2,7.6,6.2c6.2,2,15.9-0.3,16.9-7.9c0.3-1.6,0-3.3-1-4.7
		c-1.4-1.7-4-1.7-5.9-0.8c-3.2,1.7-2.8,5.9-0.7,8.2c2.6,3,7,3.2,10.6,3.1s8.6-0.3,10.6-4c0.8-1.3,0.7-2.9-0.1-4.2
		c-1-1.3-5.8,0-4.6,1.5c0.6,0.9,0.5,2-0.1,2.8c-0.7,0.8-1.7,1.2-2.7,1.1c-2.6,0.2-5.7,0.5-8-0.9c-1.7-1.1-3.1-3.7-2.1-5.7
		c0.1-0.1,0.3-0.3,0.3-0.5l-2.2,0.5c0.2,0.2,0.3,0.4,0.5,0.6c0.3,0.5,0.5,1.1,0.5,1.7c0.2,1.3-0.1,2.6-0.7,3.8
		c-2.1,4.1-6.8,4-10.3,1.9c-2.2-1.3-3.9-3.4-4.5-5.9c-0.2-1.2,0-2.4,0.6-3.4c0.2-0.3,0.4-0.5,0.7-0.8c-0.3,0.3-0.8-0.3-0.2,0.1
		c0.2,0.2,0.5,0.3,0.8,0.4c2.2,1.7,2,4.7,0.5,6.8c-1.3,1.9-3.3,3.1-5.5,3.5c-4.6,0.8-9.4-1.7-12.1-5.4c-2.9-4.2-3.9-9.5-2.8-14.5
		c0.5-2.5,1.7-4.8,3.3-6.8c0.7-0.8,1.5-1.6,2.4-2.1c0.6-0.4,1.8-1,2.5-0.8c1.1,0.3,1.3,2.5,1.3,3.5c0,1.4-0.4,2.9-1.1,4.1
		c-1.6,2.7-3.8,5.1-6.4,6.8c-5.7,4.2-11.8,7.7-18.4,10.5c-0.8,0.3-1.4,1.2-0.6,1.9S114.9,407.7,115.7,407.4L115.7,407.4z"></path><path class="st1" d="M182.3,396.7v-1.8c0-0.2-0.1-0.4-0.3-0.6c-0.2-0.2-0.4-0.3-0.6-0.4c-0.3-0.1-0.6-0.2-0.9-0.2
		c-0.3-0.1-0.7-0.1-1,0l-0.6,0.2c-0.4,0.1-0.7,0.3-1,0.6l-0.3,0.4c-0.2,0.3-0.2,0.6-0.2,0.9v1.8c0,0.2,0.1,0.4,0.3,0.6
		c0.2,0.2,0.4,0.3,0.6,0.4c0.3,0.1,0.6,0.2,0.9,0.2c0.3,0.1,0.7,0.1,1,0l0.6-0.2c0.4-0.1,0.7-0.3,1-0.6l0.3-0.4
		C182.3,397.3,182.3,397,182.3,396.7L182.3,396.7z"></path><path class="st1" d="M302.8,332.2c0,0-0.8-140.7-58.5-120c-36.1,12.9-80.9,120-80.9,120"></path><path class="st1" d="M304.8,333.7c0-3.7-0.2-7.4-0.4-11.1c-0.5-9.1-1.2-18.1-2.3-27.1c-1.3-11.3-3.3-22.4-5.9-33.5
		c-2.6-10.6-6-21.1-11.3-30.6c-4.7-8.4-11.5-16.4-20.5-20.4c-8.4-3.8-18.1-2.7-26.2,1.6c-4.7,2.6-8.9,5.9-12.6,9.7
		c-4.6,4.6-8.8,9.5-12.7,14.6c-8.8,11.8-16.7,24.1-23.7,37c-6.5,11.7-12.6,23.6-18.3,35.6c-3.2,6.7-6.2,13.4-9.1,20.2
		c-0.1,0.3-0.3,0.6-0.4,1c-0.4,1,3.7,3.5,3.9,3.1c1.9-4.6,4-9.2,6.1-13.8c5.1-11,10.4-21.9,16.1-32.6c6.7-12.9,14.2-25.5,22.3-37.6
		c7.1-10.5,15-21.1,24.9-29.1c7.3-5.9,16.4-10,26-8.6c2,0.3,3.9,0.8,5.7,1.6c0.8,0.4,1.6,0.7,2.4,1.2c0.4,0.2-0.2-0.1,0,0l0.3,0.2
		l0.6,0.4c0.2,0.1,0.7,0.5,0.2,0.1l0.8,0.5c0.3,0.2,0.5,0.4,0.1,0.1l0.6,0.5c0.2,0.2,0.4,0.3,0.6,0.5c-0.5-0.4,0,0,0.2,0.2
		s0.4,0.4,0.6,0.6c0.5,0.4-0.2-0.2,0.2,0.2s0.8,0.8,1.2,1.3l0.4,0.4l0.4,0.4c0.4,0.4,0.7,0.9,1.1,1.3c0.8,0.9,1.3,1.7,2,2.6
		c5.8,8.6,9.5,18.5,12.4,28.4c3,10.9,5.3,22,6.8,33.2c1.3,9.6,2.3,19.2,2.9,28.9c0.3,5.1,0.6,10.3,0.6,15.5c0,0.2,0,0.5,0,0.7
		c0,0.8,1.6,1.8,2.2,2.2C303.2,333.2,304.8,334.2,304.8,333.7L304.8,333.7z"></path><path class="st0" d="M224.2,260.4L214.1,283c0,0-5.3,58-42.3,59c-30.1,0.9,6.5-66.3,6.5-66.3s-3.3-13.3-17.3-10.3
		c-18.3,3.9-23.7-3.8-15.2-9.9s39.3-9.5,39.3-9.5L224.2,260.4z"></path><path class="st1" d="M221.7,259.9l-4.6,10.3l-3.4,7.6c-0.7,1.5-1.5,3-2,4.5c-0.3,1.2-0.5,2.4-0.5,3.6c-0.5,3.5-1.2,6.9-2,10.4
		c-2.4,10-5.9,20-11.8,28.5c-6.3,9.2-15.7,16.2-27.2,16.5c-0.4,0-0.9,0-1.3,0c-0.2,0-0.4,0-0.6-0.1c-0.4-0.1,0.1,0,0.2,0
		c-0.1,0-0.2,0-0.3-0.1c0-0.1-0.2-0.1,0.1,0l-0.3-0.1c-0.5-0.2,0.1,0.1-0.3-0.1l-0.5-0.2c-1.3-0.8-2.3-1.8-3.1-3.1
		c-1.9-3.2-2-7.4-1.7-11c0.8-10.1,4.5-20.1,8.4-29.5c2.8-6.8,6-13.5,9.4-20c0.1-0.3,0.5-0.7,0.5-1c-0.1-0.4-0.2-0.8-0.4-1.1
		c-0.3-0.7-0.6-1.4-0.9-2.1c-2.9-5.5-8.4-8.2-14.4-8.6c-4.4-0.3-8.7,1.2-13.1,1.4c-0.8,0-1.7,0-2.5,0l-0.9-0.1
		c-0.2,0-0.4-0.1-0.6-0.1c-0.4-0.1-0.8-0.2-1.2-0.4c-0.4-0.2-0.8-0.4-1.1-0.7c-3.9-3.5,1.7-8.1,4.7-9.6c5.4-2.7,11.6-4,17.5-5.1
		c5.5-1.1,11-1.9,16.6-2.6l1.2-0.1h0.1h0.4l0.7-0.1l-3-0.5l34.1,12.6l4.8,1.8c0.8,0.3,2.5,0.8,3.4,0.4s-0.2-0.8-0.7-1l-29.1-10.7
		l-7.1-2.6c-1.2-0.5-2.4-0.9-3.6-1.2c-1.9-0.3-3.8-0.2-5.6,0.2c-3,0.4-6.1,0.8-9.1,1.3c-7.6,1.2-15.3,2.6-22.5,5.4
		c-2.9,0.9-5.4,2.6-7.4,4.8c-1.4,1.8-2.2,4.2-0.6,6.1c2.3,2.7,6.8,3.4,10.1,3.7c2.6,0.2,5.2,0.2,7.8-0.2c2.7-0.3,5.3-1.2,8-1.2
		c0.6,0,1.1,0.1,1.6,0.2c0.6,0.2,1.2,0.5,1.7,0.8c1.3,0.8,2.4,1.8,3.3,2.9c1.3,1.5,2.3,3.3,2.8,5.2c0.1,0.5,0,0.7-0.3,1.2
		c-0.6,1.2-1.3,2.4-1.9,3.6c-2.2,4.4-4.3,8.8-6.2,13.3c-2.6,5.8-4.8,11.7-6.6,17.8c-1.7,5.5-3.1,11.3-3.2,17.1c0,4.1,0.7,8.8,4,11.6
		c4.7,3.9,12.2,3.7,17.8,2.6c13.4-2.6,22.5-13.5,28.1-25.3c4.4-9.6,7.3-19.7,8.7-30.2c0.1-1,0.2-2,0.4-2.9c0.2-0.7,0.5-1.4,0.8-2
		l7.4-16.8l1.9-4.2C226.9,260.4,222.2,258.9,221.7,259.9z"></path><path class="st1" d="M309.1,195.9c26.9-45.7,2-72.1-18.9-83.2s-38.7-9-46.7-1.8c-5.9,5.4-7.1,51.9-7.1,51.9l22.6,49.5
		C259.1,212.4,288.6,230.7,309.1,195.9z"></path><path class="st0" d="M207,174.1c-6.4-21.1,34.3-54.6,34.3-54.6c8.3,2.4,24.6,1.7,24.6,1.7c-15.7,21.2,8.3,41.5,8.3,41.5
		c11.9-9.7,24.3,2.2,17.2,14.1s-19.5,7.2-19.5,7.2s-9.3,33.3-12.9,37.6c0,0-26.9,3.8-30.5-20.2C228.4,201.4,211.3,188.4,207,174.1z"></path><path class="st1" d="M209.4,173.5c-2.7-9.2,3.3-19.3,8.6-26.6c6-8.1,12.8-15.6,20.3-22.3c0.7-0.6,1.3-1.2,2-1.8l0.9-0.8l0,0
		l0.4-0.3l1.3-1.1l-3,0.4c5.3,1.5,10.8,1.8,16.3,1.9c3.2,0.1,6.3,0.1,9.5,0l-1.7-2.6c-2.9,3.7-4.8,8.1-5.6,12.7
		c-0.5,3.9-0.2,7.9,1,11.6c2,6,5.3,11.5,9.7,16.1c1,1.1,2.1,2.1,3.2,3.1c1.1,0.7,2.5,0.6,3.5-0.2c3-2.4,6.7-3.9,10.3-2.2
		c3,1.6,4.9,4.7,4.9,8.2c-0.1,4.2-2.2,8.2-5.5,10.7c-1.2,0.9-2.6,1.6-4,2c-0.4,0.1-0.7,0.2-1.1,0.2l-0.5,0.1c-0.8,0.1,0.3,0-0.2,0
		c-0.7,0.1-1.4,0.1-2.1,0.1H277c-0.6,0,0.3,0-0.2,0c-0.3,0-0.7-0.1-1-0.1c-0.5-0.1-1.1-0.2-1.6-0.3l-0.6-0.1c0.7,0.2,0.2,0.1,0,0
		l-0.4-0.1c-1.5-0.5-3.5,0.1-3.9,1.7c-2.9,10.3-5.8,20.7-9.7,30.7c-0.5,1.3-1,2.6-1.6,3.9c-0.2,0.5-0.5,1-0.7,1.4
		c-0.1,0.2-0.2,0.4-0.4,0.6c-0.2,0.4,0.3-0.4-0.1,0.1l1.6-0.9c1.3-0.2,0.5-0.1,0.1,0s-0.9,0.1-1.4,0.1c-0.7,0-1.3,0.1-2,0.1H254
		h-0.6c-0.4,0-0.5,0-0.3,0c-2-0.2-4.1-0.5-6.1-1c-0.1,0-0.9-0.2-0.4-0.1l-0.8-0.2c-0.6-0.2-1.2-0.4-1.8-0.6
		c-1.1-0.4-2.1-0.9-3.1-1.4c-4.8-2.8-8.2-7.5-9.5-12.9c-0.3-1.2-0.2-2.9-1.2-3.7c-0.4-0.3-0.8-0.6-1.2-1c-1.9-1.6-3.7-3.2-5.5-4.9
		C217.7,188.3,211.9,181.5,209.4,173.5c-0.7-2.3-5.5-1.1-4.8,1.1c3.2,10.5,11.5,19.2,19.7,26.2c0.7,0.6,1.5,1.2,2.2,1.8l-0.5-0.8
		c1.2,7.8,5.3,14.3,12.3,18c5.1,2.5,10.7,3.8,16.4,3.6c1.3,0,2.5-0.1,3.8-0.2c1.3-0.1,2.4-0.8,3.1-1.9c0.5-0.8,1-1.7,1.4-2.6
		c2.7-6.4,4.9-13,6.8-19.7c1.5-5,3-10.1,4.5-15.2l-3.9,1.7c6,2.1,12.6,1.2,17.8-2.3c4.1-3,7.5-8,7.7-13.2c0.2-4.7-2.3-9-6.4-11.2
		c-5.5-2.9-12.2-0.9-16.9,2.8l3.5-0.2c-0.2-0.2-0.4-0.4-0.6-0.6l-0.6-0.6l-0.4-0.4l-0.2-0.2l0,0c-1.7-1.8-3.3-3.7-4.8-5.8
		c-3.9-5.4-6.7-12-6.3-18.8c0.3-4.7,2-9.2,4.9-13c1-1.4-0.1-2.7-1.7-2.6c-6.6,0.4-13.2,0.1-19.7-0.8c-2.1-0.3-4.9-1.6-6.7-0.3
		c-0.2,0.1-0.4,0.3-0.6,0.5c-1.3,1.1-2.6,2.3-3.9,3.4c-10.1,9.1-20,19.4-26.5,31.4c-3.4,6.2-6.3,13.9-4.2,21.1
		C205.2,176.9,210.1,175.8,209.4,173.5z"></path><path class="st1" d="M248.9,150.7c0,0-3.1-1-3.8,2s3.1,3.9,4.5,1.5c0.8-1.1,0.6-2.6-0.5-3.3C249.1,150.8,249,150.8,248.9,150.7z"></path><path class="st1" d="M231.1,139.7c0,0-3.1-1-3.8,2s3.1,3.9,4.5,1.5c0.8-1.1,0.6-2.6-0.5-3.3C231.3,139.8,231.2,139.7,231.1,139.7z"></path><path class="st1" d="M287.7,199.1c-0.4,4.2-0.3,8.5,0.2,12.8c0.7,6.2,2.7,14.5,9,17.2c3.4,1.5,7.1,0.6,10.3-1
		c4.1-2,8.1-5.1,9.3-9.7c1.7-6.6-4.1-15.3-11.4-14.4c-3.9,0.5-6.2,3.8-7.5,7.2c-2,5.3-2,11.3-1.1,16.8c0.8,5.6,2.7,11.1,5.3,16.1
		c2.2,4.1,5.1,8.2,9.1,10.8c2.8,1.8,6.4,2.6,9.3,0.5c2.6-2,4.3-5.1,4.5-8.4c0.5-5.9-3.1-11.6-7.6-15.1c-3.7-2.9-9.2-5.3-13.8-3.1
		c-6.1,3-5.3,12-4.4,17.4c0.5,2.7,1.2,5.4,2,8c0.3,1,1.1,2.4,2.2,2.6s1.4-0.9,1.1-1.8c-1.5-4.3-2.3-8.7-2.4-13.2
		c-0.1-2.4,0.5-4.8,1.8-6.9c1-1.4,2.5-2.2,4.2-2.4c0.5-0.1,1-0.1,1.5-0.1c0.1,0,0.7,0.1,0.4,0c0.3,0,0.6,0.1,0.9,0.1
		c0.5,0.1,1,0.2,1.4,0.4c0.2,0.1,0.4,0.1,0.6,0.2c0.1,0,0.3,0.1,0.4,0.1c0.3,0.1-0.3-0.1,0.2,0.1c1,0.5,2,1,2.9,1.6
		c-0.5-0.4,0.2,0.2,0.3,0.3c0.2,0.2,0.4,0.3,0.6,0.5c0.2,0.2,0.5,0.4,0.7,0.6l0.2,0.2c0.5,0.4-0.2-0.2,0.1,0.1s0.7,0.8,1.1,1.2
		l0.3,0.4c0.4,0.4-0.3-0.5,0-0.1c0.2,0.2,0.3,0.5,0.5,0.7s0.3,0.5,0.4,0.8c0.3,0.4-0.2-0.6,0-0.1l0.1,0.3c0.1,0.3,0.2,0.5,0.3,0.8
		l0.1,0.4c0.2,0.4-0.1-0.6,0,0c0.1,0.2,0.1,0.5,0.2,0.8s0.2,1.1,0.1,0.4c0.1,0.6,0.1,1.1,0.1,1.7c0,0.5,0-0.2,0,0.4
		c0,0.3-0.1,0.6-0.1,0.9s-0.1,0.5-0.2,0.7s-0.3,0.9-0.2,0.7c-1,2.6-3.1,5.3-6,5.4s-5.2-2.1-6.9-4.1c-1.3-1.6-2.4-3.3-3.4-5.1
		c-3.3-6.3-5-13.4-4.8-20.6c0.1-4,0.9-9,3.8-12c1.7-1.9,4.4-2.5,6.8-1.5c-0.3-0.1,0.3,0.2,0.5,0.2s0.9,0.6,0.5,0.3
		c0.3,0.2,0.5,0.4,0.8,0.6c0.1,0.1,0.3,0.3-0.1-0.1c0.2,0.2,0.3,0.3,0.5,0.5s0.4,0.6,0,0c0.1,0.1,0.2,0.3,0.3,0.4l0.2,0.3
		c0.3,0.5-0.2-0.5,0,0c0.1,0.2,0.4,1.2,0.2,0.6c0.1,0.3,0.2,0.7,0.2,1c-0.1-0.4,0,0.5,0,0.7c0,0.2,0,0.4,0,0.6
		c-0.1,0.7-0.2,1.4-0.5,2.1c-0.8,1.8-2,3.3-3.5,4.5c-2.8,2.3-6.6,4.5-10.4,4.5c-1,0-2.1-0.2-3-0.7l-0.4-0.2c-0.4-0.3,0.4,0.3,0,0
		l-0.6-0.5c-0.4-0.4,0.4,0.4,0,0l-0.3-0.4c-0.1-0.1-0.2-0.2-0.2-0.3c-0.4-0.5,0.2,0.4,0-0.1c-0.2-0.3-0.4-0.6-0.5-0.8l-0.2-0.4
		c0,0,0.3,0.5,0.1,0.1c-0.3-0.6-0.6-1.3-0.8-1.9c0-0.1-0.2-0.7,0-0.1c0-0.2-0.1-0.4-0.2-0.5s-0.2-0.6-0.3-1
		c-0.2-0.8-0.4-1.5-0.5-2.3c-0.1-0.3-0.1-0.6-0.2-0.9c0-0.1-0.1-0.7,0-0.2c0-0.2,0-0.4-0.1-0.6c-0.1-0.7-0.2-1.5-0.2-2.2
		c-0.1-1.3-0.2-2.7-0.2-4c0-1.9,0-3.8,0.1-5.7c0-0.7,0,0.3,0-0.2c0-0.1,0-0.2,0-0.2c0.1-1.2-0.4-2.4-1.4-3.2c-0.5-0.5-2-1-2.1,0.2
		L287.7,199.1z"></path><path class="st0" d="M237.1,147.1c-6,1.1-12.2,1.4-18.3,0.8c-20.6-1.8-24.7,4.5-19.6,9.9s32.8,9.4,32.8,9.4"></path><path class="st1" d="M235.9,145.1c1.1-0.3,0.4-0.1,0.1,0l-1.3,0.2c-1.5,0.2-3.1,0.4-4.6,0.5c-5.2,0.4-10.2-0.1-15.3-0.4
		c-4.2-0.3-8.5,0.1-12.6,1c-2.3,0.6-4.9,1.6-6.3,3.6c-2.9,4,0.4,8.8,4,10.9c5.4,3.1,12,4.5,18.1,5.8c4.6,1,9.3,1.9,14,2.5
		c1.1,0.2,2.3-0.5,2.5-1.7c0,0,0-0.1,0-0.1c-0.1-1.3-1.1-2.3-2.4-2.4c-3.5-0.5-7.1-1.1-10.6-1.8c-5.8-1.2-11.5-2.3-17.2-4.7
		l-0.8-0.4c-0.6-0.2,0.2,0.1-0.4-0.2c-0.5-0.2-0.9-0.5-1.4-0.8l-0.5-0.4c0.4,0.3,0.1,0.1-0.1-0.1s-0.3-0.3-0.4-0.4s-0.2-0.2-0.3-0.3
		s0.3,0.4,0,0s-0.4-0.7-0.6-1.1c0.1,0.1,0.1,0.3-0.1-0.2l-0.1-0.6c-0.1-0.4-0.1,0.4,0-0.1c0-0.2,0-0.3,0-0.5c0-0.3-0.2,0.4,0,0
		c0.1-0.2,0.1-0.4,0.2-0.6s-0.3,0.3,0-0.1c0.1-0.1,0.2-0.3,0.3-0.4c0.1-0.1,0.2-0.2,0.2-0.3c0.2-0.2-0.3,0.3-0.1,0.1
		c0.2-0.2,0.4-0.3,0.6-0.5c0.2-0.1,0.4-0.2,0.6-0.4s-0.3,0.2,0,0l0.4-0.2c0.6-0.3,1.2-0.5,1.9-0.6c3.4-0.8,7-1.1,10.5-0.9
		c5.6,0.2,11.1,0.8,16.6,0.4c2.4-0.1,4.8-0.5,7.1-1c1-0.3,1.5-1.4,1.2-2.4c0-0.1-0.1-0.3-0.2-0.4
		C238.5,145.3,237.1,144.8,235.9,145.1L235.9,145.1z"></path><path class="st1" d="M178.4,200.9c0,0-7.9,0.3-7.9-4.8s35.4-10.4,52.2-4.5s17.4,12.4,3.6,12.9S178.4,200.9,178.4,200.9z"></path><path class="st1" d="M176.9,199.8h-0.6c-0.5,0,0.2,0-0.2,0l-0.5-0.1c-0.1,0-0.3-0.1-0.4-0.1l-0.5-0.1c0.6,0.1-0.4-0.1-0.1,0
		l-0.1-0.1c0.2,0.1-0.2-0.1-0.3-0.2c-0.3-0.3-0.6-0.6-0.8-1c-0.3-0.6-0.4-1.3-0.2-2c0.3-0.9,1.6-1.4,2.4-1.8c1.6-0.7,3.3-1.3,5-1.7
		c5-1.2,10.1-2,15.2-2.4c5.7-0.5,11.5-0.5,17.3,0c1.3,0.1,2.6,0.3,3.8,0.5c0.6,0.1,1.2,0.2,1.8,0.3l0.8,0.2l0.5,0.1
		c-0.3-0.1,0,0,0.1,0c0.6,0.1,1.1,0.3,1.6,0.5l0.3,0.1l0.4,0.1c0.6,0.2,1.2,0.4,1.8,0.6c1.6,0.6,3.2,1.3,4.7,2.1
		c2.3,1.2,7.4,4.7,3.2,7c-2.2,1.2-4.9,1.3-7.3,1.4c-2.1,0.1-4.3,0.1-6.4,0c-5.4-0.2-10.7-0.6-16-1c-8.2-0.7-16.3-1.6-24.5-2.5
		l-0.4-0.1c-0.6-0.1-1.8-0.1-1.2,0.8s2.3,1.1,3.2,1.2c7.9,1,15.8,1.8,23.7,2.5c6,0.5,12,1,18,1.2c2.4,0.1,4.8,0.1,7.2,0
		c2.7-0.1,5.8-0.4,8.2-1.7c4.7-2.6-0.5-6.8-3.2-8.3c-6.1-3.6-12.9-5.9-19.9-6.8c-6.3-0.8-12.7-1-19.1-0.5
		c-5.8,0.3-11.6,1.1-17.2,2.4c-2,0.5-4,1.1-5.9,1.9c-1.2,0.4-2.3,1.1-3,2.2c-0.9,1.7,0.9,3.8,2.2,4.7c2.3,1.4,5,2.2,7.7,2.3
		c0.6,0.1,1.1,0.1,1.7,0.1c0.9,0,1-0.5,0.3-1C179.2,200.2,178,199.9,176.9,199.8z"></path><path class="st0" d="M175,198.9l3.2,66.4l42.6,1.1l9.3-66C230.1,200.3,203.4,187.1,175,198.9z"></path><path class="st1" d="M173.3,197.5l1.1,22.5l1.7,35.7l0.4,8.2c0.1,1.4,1.3,3.5,2.9,3.6l37.4,0.9l5.2,0.1c0.4,0,0.6-0.4,0.6-0.7
		l3.1-22.3l5-35.5l1.2-8.2c-0.1-1.4-0.8-2.7-2.1-3.4c-3.6-1.7-7.3-3-11.2-4c-8.7-2.3-17.7-3.1-26.6-2.2c-6.3,0.7-12.5,2.2-18.4,4.6
		c-1.3,0.6,1.2,4.8,2.9,4.1c16.1-6.6,34.5-6.1,50.7,0l1.5,0.6l0.6,0.3l0.3,0.1c0.2,0.1-0.4-0.1-0.1,0l1,0.4l-2.1-3.4l-3.2,22.3
		l-5,35.5l-1.1,8.2l0.6-0.7l-37.4-0.9l-5.2-0.1l2.9,3.6l-1.1-22.5l-1.7-35.7l-0.4-8.2c-0.1-1.2-0.7-2.3-1.6-3
		C174.7,196.9,173.2,196.3,173.3,197.5z"></path><path class="st1" d="M222,194.1l0.9-8.4c0.2-2.1-0.1-6.8,2.7-7.4c0.7-0.1,1.5,0,2.2,0.3l3.8,0.8l10.8,2.2l7.3,1.5
		c1.1,0.2,2.6-0.4,2.7-1.6s-1.2-2-2.3-2.2l-17.9-3.7c-2.3-0.5-5-1.4-7.4-1.1c-3.1,0.3-5.6,2.6-6.2,5.6c-0.2,1.1-0.2,2.1-0.4,3.2
		l-1.1,10.1C216.7,196,221.7,196.6,222,194.1L222,194.1z"></path><path class="st3" d="M189.3,234.4c0.1-6.9,0-13.8-0.2-20.7c0-1.2-4.5-2.6-4.8-1.5c-0.4,1.5-0.1,3.1,0.6,4.4
		c0.4,0.7,4.7,2.4,4.8,1.3c0.1-1.2,0.8-2.2,1.8-2.8c0.9-0.2,0.3-0.4-1.7-0.6l0.2,0.2c0.2,0.3,0.4,0.6,0.6,0.9
		c0.4,0.7,0.6,1.4,0.7,2.1c0.2,1.6-0.8,3-1.6,4.2c-0.4,0.6-0.8,1.1-1.3,1.6c-0.2,0.2-0.5,0.4-0.8,0.6c-0.2,0.1-0.4,0.2-0.6,0.2
		c-0.6,0.1-0.4,0.2,0.7,0.2c-0.4-0.1-2.4-0.7-2.6,0s1.8,1.4,2.1,1.5c1.4,0.5,2.8,0.6,4.2,0.1c1-0.5,1.9-1.3,2.5-2.2
		c0.8-0.9,1.4-2,1.8-3.1c0.3-1.2,0.2-2.5-0.3-3.6c-1.2-2.5-3.6-4.1-6.4-4.3c-2.1-0.3-4,1.1-4.3,3.2c0,0.1,0,0.2,0,0.3l4.7,1.3
		c-0.7-1.2-0.9-2.6-0.6-4l-4.8-1.5c0.2,6.9,0.3,13.8,0.2,20.7C184.6,234.2,189.3,235.1,189.3,234.4L189.3,234.4z"></path><path class="st3" d="M195.6,224.9l0.1,1.4c0,0.1,0.1,0.2,0.2,0.2c0.2,0.1,0.3,0.2,0.5,0.2c0.3,0.1,0.5,0.1,0.8,0.2
		c0.9,0.1,1.8,0.2,2.8,0.1c0.2,0,0.4,0,0.6-0.1c0.3,0,0.5-0.1,0.8-0.2c0.1,0,0.1-0.1,0.2-0.1c0.1-0.1,0.2-0.3,0.2-0.5
		c0-0.1,0-0.1,0-0.2c0-0.1-0.1-0.2-0.2-0.3c-0.1-0.1-0.3-0.2-0.4-0.2c-0.2-0.1-0.5-0.1-0.7-0.2c-0.3-0.1-0.6-0.1-0.9-0.1
		c-0.3,0-0.7-0.1-1-0.1h-0.6c-0.3,0-0.6,0.1-0.9,0.1l-0.3,0.1c-0.1,0.1-0.1,0.2,0,0.3c0,0,0.1,0.1,0.1,0.1l-0.1-0.1
		c0.1,0.2,0.1,0.5-0.1,0.6l0.1-0.1c-0.1,0.1-0.1,0.1-0.2,0.1l0.3-0.1h-0.1l0.4-0.1H197l0.5-0.1h-0.1h0.6H198h0.7l0,0l0.7,0.1h-0.1
		l0.6,0.1h-0.1l0.5,0.1l-0.2-0.1l0.7,0.4v-1.4c0-0.1-0.1-0.2-0.2-0.2c-0.2-0.1-0.3-0.2-0.5-0.2c-0.3-0.1-0.5-0.1-0.8-0.1
		c-0.3-0.1-0.7-0.1-1-0.1h-0.7c-0.4,0-0.7,0-1.1,0.1l-0.4,0.1C195.9,224.6,195.7,224.7,195.6,224.9L195.6,224.9z"></path><path class="st3" d="M201.3,215.8c-0.1,4.1,0.1,8.1,0.5,12.2c0.1,1.1,1.5,1.6,2.4,1.6s2.4-0.7,2.5-1.8l0.6-5.9
		c0.1-0.8,0.2-1.5,0.3-2.3c0-0.2,0.1-0.3,0.1-0.5c0.1-0.5-0.1,0.1,0.1-0.2c0.1-0.1,0.1-0.3,0.2-0.4c0.2-0.4-0.3,0.2,0,0
		c0.1-0.1,0.5-0.4,0,0c0.2-0.1,0.2-0.1,0,0c-0.3,0.2-0.6,0.2-0.9,0.2c-0.3,0-0.7-0.1-0.9-0.3l0.1,0.1c-0.1-0.2-0.2-0.2,0,0l0.1,0.2
		c0.1,0.1,0.1,0.2,0.1,0.3c-0.1-0.2-0.1-0.2,0-0.1s0.1,0.4,0.2,0.6c0.1,0.5,0.2,1,0.3,1.4c0.2,0.9,0.3,1.8,0.4,2.7
		c0,0.5,0.1,0.9,0.1,1.4c0,0.3,0,0.5,0,0.8l0,0c0,0.1,0,0.3,0,0.5l4.9-0.3c-0.1-0.4-0.1-0.9-0.2-1.3c0-0.2,0-0.4,0-0.6s0-0.3,0-0.4
		l0,0c0-0.9,0.1-1.7,0.3-2.5c0.1-0.5,0.2-0.9,0.4-1.3c-0.1,0.3,0.1-0.2,0.1-0.3s0.1-0.3,0.2-0.5c0.1-0.2,0.2-0.3,0.3-0.5
		c-0.2,0.4,0-0.1,0.1-0.1l-0.2,0.2c0.2-0.1,0.2-0.1-0.1,0l-2-0.2c0.1,0.2,0.2,0.2,0,0c0.4,0.6,0.8,1.3,1.1,2
		c0.1,0.2,0.1,0.4,0.2,0.6c0,0,0.2,0.6,0.1,0.2c0.1,0.4,0.2,0.8,0.3,1.1c0.2,0.8,0.3,1.6,0.4,2.4c0,0.2,0,0.5,0,0.7v0.3
		c0-0.1,0-0.2,0,0c0,0.4,0,0.9-0.1,1.3c-0.1,1.1,0.8,2,1.9,2.1c0.1,0,0.1,0,0.2,0c1.1,0,2.7-0.6,2.8-1.8c0.3-2.2,0.1-4.4-0.5-6.5
		c-0.3-1.1-0.8-2.2-1.3-3.2c-0.5-1.2-1.5-2.2-2.7-2.6c-1.7-0.4-3.4,0.2-4.4,1.6c-0.8,1-1.3,2.2-1.6,3.4c-0.6,2.2-0.8,4.6-0.4,6.9
		c0.3,1.1,1.4,1.7,2.4,1.6c0.9,0,2.4-0.7,2.5-1.8c0.1-2.5-0.1-4.9-0.6-7.3c-0.2-1.2-0.7-2.4-1.4-3.4c-1.2-1.1-2.9-1.4-4.4-0.7
		c-2.2,0.9-3,3.2-3.3,5.4c-0.3,2.4-0.5,4.7-0.8,7.1l4.9-0.3c-0.2-1.9-0.4-3.8-0.4-5.7c-0.1-1.8-0.1-3.7-0.1-5.4
		c0.1-0.5-0.1-1.1-0.5-1.4c-0.4-0.4-1-0.6-1.6-0.6C203.1,213.9,201.4,214.5,201.3,215.8L201.3,215.8z"></path><path class="st1" d="M245,174.7c-0.5,2.3,0.3,4.6,2,6.1c2.2,2.2,5.2,3.3,8,4.1c0.3,0.1,2.2,0.5,2-0.3c-0.1-0.4-0.7-0.6-1-0.8
		c-0.6-0.3-1.2-0.5-1.8-0.7c0.1,0,0.6,0.2,0.2,0.1l-0.3-0.1l-0.6-0.2c-0.3-0.1,0.1,0.1,0.2,0.1c-0.1,0-0.2-0.1-0.3-0.1l-0.6-0.3
		c-0.3-0.1,0.5,0.2,0.1,0l-0.2-0.1l-0.2-0.1c-0.4-0.2,0.2,0.2,0,0s-0.4-0.2-0.5-0.4l-0.2-0.2c0.2,0.1,0.1,0,0-0.1
		c-1.2-1-1.9-2.4-2.1-4v0.2c-0.1-0.6,0-1.2,0.1-1.8c0.1-0.3-0.4-0.6-0.5-0.7c-0.5-0.3-1-0.6-1.6-0.8c-0.6-0.2-1.1-0.3-1.7-0.4
		C245.6,174.4,245.1,174.4,245,174.7L245,174.7z"></path><path class="st0" d="M215.9,277.3c0,0,16.6-19.5,14.9-28.7s-11-17.4-15.6-13.8s3.6,15.3,3.6,15.3s-15.5,6.8-14,23.5"></path><path class="st1" d="M218.3,277.1c2.2-2.6,4.3-5.4,6.3-8.2c3.3-4.7,6.6-9.8,8.2-15.4c0.8-2.5,0.7-5.2-0.1-7.7
		c-1.2-3.5-3.2-6.6-5.8-9.1c-2.2-2.2-5.2-3.5-8.4-3.4c-2.7,0.1-6.4,0.7-7.1,3.8c-0.6,2.8,0.8,5.9,2,8.3c0.8,1.7,1.8,3.4,2.9,4.9
		l0.3-0.3c-6.1,2.8-10.8,7.8-13.1,14c-1.1,3.1-1.5,6.5-1.2,9.8c0.1,0.6,5,0.2,5-0.5c-0.5-5.4,0.9-10.7,4-15.1
		c2.1-2.9,4.8-5.4,7.9-7.2c0.6-0.3,1.1-0.7,1.7-0.9c0.1,0,0.3-0.1,0.3-0.3c-2.1-3.1-4.2-6.7-4.9-10.4c-0.2-1-0.2-2.1,0-3.1
		c0.3-1.1,1-1.4,1.8-2.1c-0.6,0-1.2,0-1.7,0.2c0.3,0.1,0.6,0.1,0.9,0.2c0.6,0.2,1.2,0.5,1.8,0.8c1.3,0.8,2.5,1.8,3.6,2.9
		c2.4,2.6,4.2,5.7,5.1,9.1c0.6,2.2,0.5,4.6-0.2,6.8c-1.5,5.2-4.6,10-7.7,14.4c-2.1,3-4.3,5.9-6.6,8.7c-0.4,0.5,1.6,0.4,1.8,0.4
		C216,277.8,217.7,277.8,218.3,277.1L218.3,277.1z"></path><path class="st0" d="M168.6,238.8c0,0,6.7-17.4,12.8-17.1s0.3,18.6-1.2,19.2S168.6,238.8,168.6,238.8z"></path><path class="st1" d="M170.6,240.3c1.1-2.9,2.5-5.7,4-8.4c1.1-2.1,2.5-4,4-5.8c1.1-1.3,2.6-2.8,4.4-2.8c0.2,0,0.8,0,0.8,0.1
		c-0.1-0.1-0.3-0.2-0.4-0.2c-1.5-0.9-1.1-1-1.8-1.4c-0.3-0.2,0,0.1,0,0.1c0.3,0.7,0.5,1.5,0.6,2.3c0.1,2.1-0.1,4.3-0.6,6.4
		c-0.4,2-1,4-1.7,5.9c-0.3,0.8-0.8,2.6-1.6,3c-0.8,0.1-1.6,0.1-2.4-0.1c-1.3-0.2-2.6-0.5-3.8-0.8c-1.7-0.4-3.3-0.8-5-1.2
		c-1-0.3,0.1,0.9,0.3,1.1c0.8,0.9,1.7,1.6,2.8,2c1.6,0.4,3.2,0.8,4.8,1.2c1.3,0.3,2.5,0.6,3.8,0.8c0.9,0.2,1.9,0.3,2.8,0.3
		c1.2-0.1,1.6-1.5,1.9-2.4c0.8-2,1.5-4.2,1.9-6.3c0.5-2.2,0.8-4.5,0.7-6.8c-0.2-2.6-1.6-4.2-3.7-5.7c-1.9-1.3-3.7-1.6-5.7-0.3
		c-1.9,1.4-3.4,3.2-4.6,5.2c-2.2,3.5-4,7.1-5.5,10.9c-0.2,0.6,1.3,1.6,1.7,1.9C168.5,239.3,170.4,240.7,170.6,240.3z"></path><path class="st0" d="M165.9,251.9c0,0-5.5-9.5-0.8-13.4s27.6-3.4,28.3,2.8c1,8.6-18.8,9.5-18.8,9.5"></path><path class="st1" d="M167.9,252.8c-2-3.4-4.4-9.5-1-12.7c1.4-1.3,3.6-1.7,5.4-2c2.7-0.4,5.4-0.6,8.1-0.5c2.7,0,5.3,0.3,7.9,0.9
		c0.6,0.1,1.1,0.3,1.6,0.5c0.4,0.1,0.8,0.3,1.2,0.5c0.4,0.2,0,0,0,0c0.1,0,0.2,0.1,0.3,0.2c-0.8-0.7,0.6,0.6-0.3-0.2
		c0.1,0.1,0.3,0.3-0.1-0.1c0,0,0.2,0.2,0,0c0,0,0.1,0.1,0.1,0.1c0.7,1.5-0.2,3.5-1.4,4.7c-1.7,1.5-3.7,2.5-5.9,3.1
		c-3.6,1.1-7.4,1.7-11.1,1.9c-0.9,0,0.7,1.7,0.8,1.8c0.8,0.8,1.8,1.2,2.8,1.3c3.6-0.1,7.2-0.7,10.7-1.8c2.4-0.6,4.7-1.7,6.6-3.4
		c1.6-1.4,2.2-3.6,1.6-5.7c-1-2.4-3.8-4-6-5c-2.7-1.1-5.6-1.7-8.5-1.9c-3.1-0.3-6.2-0.3-9.3,0c-2.5,0.1-4.9,0.7-7.1,1.6
		c-5.5,2.8-2.8,10.6-0.4,14.8c0.6,1,1.5,1.8,2.6,2.2C166.9,253.4,168.4,253.8,167.9,252.8L167.9,252.8z"></path><polyline class="st0" points="260.5,333.5 259.8,281.5 297,280 304.2,332.9 	"></polyline><path class="st1" d="M262.8,332.4l-0.2-17.5l-0.4-28l-0.1-6.5l-4,2.3l32.6-1.3l4.5-0.2l-0.4-0.1l2.4,17.9l3.9,28.4l0.9,6.6
		c0,0.4,4.7-0.9,4.5-2.1l-2.5-17.9l-3.9-28.4l-0.9-6.6c-0.1-0.1-0.3-0.2-0.4-0.1l-32.6,1.2l-4.6,0.2c-1,0.1-1.9,0.5-2.7,1
		c-0.4,0.2-1.4,0.7-1.4,1.3l0.2,17.5l0.4,28l0.1,6.5c0,0.5,2.3-0.5,2.5-0.5C261.3,333.8,262.7,333.2,262.8,332.4L262.8,332.4z"></path><path class="st3" d="M258.5,254.8c-2-3.4-0.4-8,2.6-10.3l-2.6-2.1c1.8,3.9,0.9,8.6-1.3,12.1l3.2,3.7c0.5-1.8,2.5-2.9,4.3-2.4
		c0,0,0.1,0,0.1,0c1.7,0.6,1.5,3,1,4.3c-0.7,2-2.6,3.9-4.9,3c-2.1-0.8-2-3.8-2.1-5.7c-0.1-1.2-0.7-2.3-1.6-3.1
		c-0.5-0.4-1.7-1-1.7,0.1c-0.2,3.6-1.4,7-3.6,9.8c-1,1.3-2.3,2.9-4,2.9c-0.7,0.1-1.3-0.1-1.9-0.5c-0.3-0.2-0.4-0.6-0.2-0.1
		c-0.1-0.2-0.2-0.5-0.2-0.7c-0.5-3.4,2.1-7.1,4.6-9.1c2.3-1.8,6.1-2.9,8.5-0.7c0.5,0.5,1.6,1,1.7-0.1s-0.9-2.4-1.6-3.1
		c-2.5-2.4-6.2-3-9.4-1.6c-3.2,1.6-5.6,4.3-6.7,7.7c-1.3,3.9-0.2,8.1,2.9,10.8c1.2,1.1,2.8,1.8,4.5,1.7c1.8-0.2,3.1-1.4,4.1-2.7
		c2.7-3.2,4.3-7.2,4.4-11.4l-3.3-3c0.3,4.5,1.3,9.4,5.4,12.1c3.3,2.2,7.1,0.9,8.2-3c0.9-4-0.5-8.2-3.8-10.8c-2.5-2-7.2-2.1-8.1,1.7
		c-0.1,1.1,0.3,2.2,1.1,3c0.4,0.5,1.5,1.6,2.1,0.7c3.1-4.8,3-10.8,0.6-15.9c-0.2-0.5-1.7-2.8-2.6-2c-4.4,3.5-5,9.8-2.3,14.5
		c0.4,0.7,1.3,2.3,2.3,2.1S258.8,255.4,258.5,254.8L258.5,254.8z"></path><path class="st3" d="M232.1,308.1c0.6-2.5-0.4-4.9,0-7.4c0.2-1.4,1.4-2.9,2.4-1.2c0.8,1.6,0.9,3.5,0.1,5.1c-0.4,0.9-1,1.7-1.7,2.3
		c-0.3,0.3-0.7,0.5-1.1,0.8c-0.7,0.5,0-0.3,0.7,0.7l0.5,1.1v0.1l-1.4,1.6c2.1-0.4,4.1,2,5.2,3.5s3,4.2,0.3,5.3c-1.9,0.6-4,0-5.3-1.6
		c-1.4-2-1.4-4.8,0.1-6.8l-4.7-1c0.5,3.1-1.3,6.2-2.9,8.7c-0.9,1.6-3.4,4.7-5.6,3.6c-1.9-0.9-1-3.8,0.2-4.9c0.9-0.8,2.1-1.3,3.3-1.4
		c1.6-0.1,3.3-0.5,4.8-1.2c0.9-0.6,1.2-1.8,0.6-2.8c-0.1-0.1-0.1-0.2-0.2-0.2c-0.8-1-2.2-1.3-3.4-0.8c-1.8,0.9-4,0.5-5.9,1.2
		c-1.9,0.7-3.5,2.1-4.5,3.9c-1.8,3.6-0.4,7.9,3.2,9.8c4.1,2.1,8.6-0.2,11-3.7s4.8-8,4.1-12.4c-0.3-1.4-1.7-2.3-3.1-2
		c-0.6,0.1-1.2,0.5-1.5,1c-2.3,3.7-1.8,8.6,1.2,11.8c2.9,3,7.7,4.4,11.6,2.5c1.9-0.9,3.2-2.7,3.3-4.8c0-2.3-1.3-4.3-2.6-6
		c-2.7-3.6-6.5-6.6-11.2-5.8c-0.8,0.2-1.3,0.8-1.5,1.6c-0.3,2.3,2.1,3.7,4.1,3.7c1.9-0.2,3.7-1.1,4.9-2.6c2.6-2.8,3.5-6.8,2.2-10.4
		c-1.4-4-6.7-6.8-10.3-3.6s-0.9,7.6-1.8,11.4C226.6,309.7,231.4,311,232.1,308.1L232.1,308.1z"></path><path class="st3" d="M235.1,231l-0.3-0.1l0.4,0.2c-0.2-0.1-0.5-0.3-0.6-0.5l0.3,0.3c-0.2-0.3-0.4-0.6-0.6-1l0.1,0.4
		c-0.1-0.4-0.2-0.8-0.2-1.3v0.5c0-0.3,0.1-0.6,0.1-0.8c0.1-0.4-0.2,0.4,0,0c0-0.1,0.1-0.2,0.2-0.4c0-0.1,0.2-0.3,0,0s0,0,0.1-0.1
		s0.2-0.3,0.3-0.4s-0.1,0.2-0.2,0.2s0.1-0.1,0.2-0.2l0.4-0.4c0.4-0.3-0.5,0.3,0,0c0.1-0.1,0.3-0.2,0.4-0.3c0.3-0.2,0.6-0.4,0.9-0.5
		l0.4-0.2c0.3-0.2-0.2,0.1-0.3,0.1c0.1,0,0.2-0.1,0.3-0.1l0.3-0.1c0.3-0.1-0.5,0.1-0.2,0.1s-0.4,0-0.2,0s-0.4-0.1-0.1,0l-0.4-0.2
		c0.2,0.1,0.3,0.2,0.5,0.4l-0.3-0.3c0.2,0.3,0.4,0.6,0.5,0.9l-0.1-0.4c0.1,0.4,0.2,0.9,0.2,1.4v-0.5c0,0.3,0,0.6-0.1,0.9
		c0,0.1,0,0.1,0,0.2s0,0.1,0.1-0.1c-0.1,0.1-0.1,0.3-0.2,0.4c0,0.1,0,0.1-0.1,0.2l0.1-0.2c-0.1,0.1-0.2,0.2-0.3,0.4
		c0.3-0.5,0.3-0.3,0.1-0.1l-0.2,0.1c0.4-0.3,0.5-0.3,0.2-0.2s-0.6,0.3-0.1,0.1s0,0-0.1,0c-0.4,0.1,0.6-0.1,0,0c-0.1,0-0.2,0-0.4,0
		c0.4,0,0.4,0,0.2,0h-0.2c-0.1,0-0.2,0-0.4,0c0.3,0.1,0.4,0.1,0.2,0l-0.2-0.1l-0.4-0.2c-0.6-0.2-1.1-0.1-1.7,0.1
		c-0.6,0.2-1.2,0.6-1.6,1.1c-0.6,0.9-0.7,1.9,0.4,2.4c2.5,0.9,5.3,0.3,7.2-1.6c1.8-1.6,2.5-4.2,1.6-6.6c-0.2-0.5-0.6-1-1-1.3
		c-0.7-0.5-1.6-0.7-2.4-0.6c-1.3,0.2-2.6,0.7-3.7,1.4c-2.1,1.1-4,2.9-4.6,5.2c-0.3,1-0.2,2.1,0.2,3.1c0.4,1,1.2,1.7,2.2,2.1
		c0.6,0.2,1.1,0.1,1.7-0.1c0.6-0.2,1.2-0.6,1.6-1.1c0.6-0.9,0.7-2-0.4-2.4L235.1,231z"></path><path class="st3" d="M280.3,238.7c0.7,3-1,6.6,0.9,9.3c0.7,1,1.9,1.4,3.1,1.2c1.3-0.3,2.5-0.8,3.6-1.5c0.9-0.4,1.7-1.1,2.2-1.9
		c0.2-0.5-1.6,0.3-1.8,0.4c-0.6,0.3-1.1,0.6-1.7,0.9c-0.3,0.2-0.8,0.4-0.9,0.7c0,0.1-0.1,0.2-0.2,0.3c0,0-0.2,0.3-0.1,0.1
		c0.8-0.6,1.7-1.1,2.7-1.4l0.2-0.1h-0.2c-0.5,0-0.9,0-1.3-0.2c-1-0.5-1.7-1.3-1.9-2.4c-0.8-2.6,0.3-5.3-0.3-7.9
		c-0.1-0.3-2.2,0.7-2.4,0.8c-0.5,0.3-1,0.6-1.5,0.9C280.6,238.2,280.2,238.5,280.3,238.7L280.3,238.7z"></path><path class="st0" d="M177,184.6l-6.3-4.2c-1-0.7-2-1.2-3.1-1.6c-0.1,0-0.7-0.3-0.8-0.1s0.5,0.5,0.5,0.6l6.3,4.2
		c1,0.7,2,1.2,3.1,1.6c0.1,0,0.7,0.3,0.8,0.1S177,184.6,177,184.6z"></path><path class="st0" d="M186.9,181l-3.9-10.9c-0.4-1.1-2-1-2.9-0.6s-2.2,1.2-1.8,2.4l3.9,10.9c0.4,1.1,2,1,2.9,0.6
		S187.3,182.1,186.9,181L186.9,181z"></path><path class="st0" d="M179.1,163.9v-2.1c0-0.2-0.1-0.4-0.2-0.6c-0.1-0.3-0.3-0.5-0.4-0.8c-0.2-0.3-0.4-0.5-0.6-0.8
		c-0.2-0.2-0.4-0.5-0.7-0.6l-0.4-0.3c-0.2-0.1-0.4-0.2-0.7-0.3l-0.2,0.1c-0.1,0.1-0.2,0.3-0.1,0.5v2.1c0,0.2,0.1,0.5,0.2,0.7
		c0.1,0.3,0.2,0.5,0.4,0.8c0.4,0.5,0.8,1,1.3,1.4l0.4,0.3c0.2,0.1,0.4,0.2,0.7,0.3l0.2-0.1C179.1,164.3,179.1,164.1,179.1,163.9
		L179.1,163.9z"></path></g><g id="comment"><path class="st1" d="M60.7,62.1h105.2c3.8,0,6.9,3.1,6.9,6.9v37.6c0,3.8-3.1,6.9-6.9,6.9H60.7c-3.8,0-6.9-3.1-6.9-6.9V69
		C53.9,65.2,56.9,62.1,60.7,62.1z"></path><path class="st1" d="M168,112.9H69.5c-2.2,0-4.4,0-6.7,0c-3.7-0.1-6.6-3.2-6.5-6.9c0-1.6,0-3.1,0-4.6V71.9c0-1.3-0.1-2.8,0-4.1
		c0.1-1.3,0.6-2.5,1.4-3.5c0.3-0.4,0.7-0.8,1.1-1.1c0.3-0.2,0.6-0.3,0.8-0.6c0.7-0.6-0.2,0.2-1,0.1c0.1,0,0.3,0,0.4,0c1,0,2,0,3,0
		h101.1c2-0.1,3.9,0.6,5.2,2c1.8,1.8,1.9,4.1,1.9,6.4v35.2c0,0.5,0,1,0,1.4c-0.1,1.3-0.6,2.5-1.4,3.5c-0.3,0.4-0.7,0.8-1.1,1.1
		c-0.3,0.2-0.6,0.3-0.9,0.6c-1,0.7,1.9-0.1,0.6-0.1c-1.2,0-2.4,0.3-3.5,0.7c-0.8,0.3-0.8,0.5,0.1,0.5c4.9-0.1,10.9-2.3,11-8.1
		c0-1.6,0-3.1,0-4.7V71.6c0.1-1.7,0-3.4-0.3-5.1c-1-3.1-3.9-5.1-7.2-5H88.7c-8.5,0-17,0-25.5,0c-3.1,0-6.9,0.6-9.3,2.7
		c-2.1,1.8-2.4,4.2-2.4,6.8v35.5c0,3.4,1.9,6.5,5.3,7.4c1,0.2,2,0.3,3.1,0.2h104c1.1,0,2.3-0.2,3.4-0.6
		C167.4,113.5,169,112.9,168,112.9z"></path><path class="st1" d="M106.1,112.1c0,0,7.2,17.4,10.2,15.4S124,106,124,106L106.1,112.1z"></path><path class="st1" d="M103.7,111.5c0.9,2.2,1.9,4.3,2.9,6.4c1.5,3.1,3.2,6.7,5.8,9c1.3,1.2,3.7,2.3,5.5,1.9c1.1-0.3,1.8-1.6,2.3-2.6
		c1.6-3.5,3-7.2,3.9-11c0.8-2.8,1.6-5.6,2.2-8.4c0.2-0.7-1.3-1.4-1.7-1.6c-0.8-0.5-1.8-0.6-2.8-0.4l-15.7,5.4l-2.3,0.8
		c-0.9,0.3,1.1,1.5,1.3,1.6c0.9,0.6,2,0.8,3.1,0.5l15.7-5.4l2.3-0.8l-4.5-2c-1.3,5.7-2.9,11.3-5,16.7c-0.5,1.3-1.1,2.6-1.8,3.8
		c-0.2,0.3-0.5,0.6-0.8,0.9c-0.1,0.1,0.1,0,0,0h0.1c0.3,0,0.7,0.1,1,0.1c0.4,0.1,0.9,0.3,1.3,0.5c-0.4-0.2,0.1,0.1,0,0
		c-0.1-0.1-0.2-0.2-0.3-0.2l0.1,0.1l-0.2-0.2c-0.2-0.2-0.4-0.5-0.7-0.8c-0.5-0.6-0.9-1.2-1.3-1.9c-0.9-1.5-1.7-3-2.5-4.5
		c-1.1-2.2-2.2-4.5-3.2-6.9c-0.4-0.9-1.8-1.4-2.7-1.7C105.4,111,103.4,110.7,103.7,111.5z"></path><path class="st0" d="M89.6,97c-3.5-1.8-6.5-4.6-8.6-8c-1.2-2-2.1-4.6-0.8-6.5c0.7-0.8,1.5-1.5,2.5-1.9c1.2-0.6,2.7-1.2,4-0.7
		c0.8,0.4,1.5,1.1,1.9,1.9l2.3,3.3l1.3-3.3c0.4-1.2,1-2.3,1.9-3.1c1.7-1.5,4.6-1.1,6.2,0.5c1.5,1.7,2.2,4.1,1.7,6.4
		c-0.5,2.2-1.5,4.3-2.9,6.2c-2,2.9-4.4,5.6-7,8"></path><path class="st0" d="M91.2,95.2c-2-1-3.8-2.4-5.4-4c-1.6-1.6-2.9-3.5-3.6-5.6c-0.3-0.7-0.2-1.6,0.2-2.3c0.6-0.6,1.4-1.1,2.3-1.3
		c1-0.3,1.4,0.6,1.9,1.3c0.8,1.2,1.6,2.3,2.5,3.5c1,1.3,3.7,0.4,4.2-0.9s1.1-2.9,1.7-4.3c0.2-0.5,0.5-1,0.9-1.5c0,0,0.3-0.1,0.3-0.1
		c2.4-0.3,3.6,2.5,3.7,4.5c0.1,2.8-1.7,5.4-3.2,7.5c-1.9,2.5-4,4.8-6.3,6.9c-0.7,0.7-0.8,1.8-0.1,2.5c0.1,0.1,0.2,0.2,0.4,0.3
		c1.2,0.5,2.6,0.2,3.4-0.8c3-2.7,5.6-5.8,7.8-9.1c2.1-3.2,3.6-7,2.4-10.8c-1.1-3.6-4.7-5.7-8.3-5c-4.4,0.9-5.6,5.1-7.1,8.8l4.2-1
		c-1-1.5-2-2.9-3.1-4.3c-1.3-1.4-3.3-2.1-5.2-1.6c-3.2,0.6-7,2.9-7.5,6.4c-0.4,3.2,1.5,6.1,3.4,8.5c2,2.5,4.6,4.5,7.4,6
		c1.2,0.5,2.5,0.2,3.4-0.7c0.7-0.7,0.7-1.8,0.1-2.5C91.4,95.4,91.3,95.3,91.2,95.2z"></path><path class="st0" d="M138.8,95.8c-1.9,1.2-4,2.1-6.1,2.6c-2.2,0.5-4.5,0.1-6.4-1.2c-2-1.6-2.7-4.2-3.1-6.7c-0.5-2.4-0.2-5,0.7-7.3
		c2-4.2,7.1-5.9,11.8-6.5c1.3-0.3,2.7-0.2,4,0.2c1.2,0.6,2.3,1.5,3,2.7c2.3,3.2,3.4,7.5,1.6,11c-0.2,0.3-0.3,0.6-0.4,1
		c0,0.4,0.2,0.7,0.4,1l3.8,5.7c-2.7,0.4-5.4,0.2-8-0.8"></path><path class="st0" d="M137.5,93.7c-2,1.3-4.2,2.2-6.5,2.6c-1.6,0.2-3.9,0-5-1.4s-1.1-3.5-1.2-5.1c-0.2-2.2,0.3-4.4,1.6-6.2
		c2.2-2.9,6.1-4.1,9.6-4.6c2-0.3,4.2-0.6,5.6,1.2c1.1,1.3,1.8,3,1.9,4.7c0.1,1.1,0,2.1-0.4,3.1c-0.4,1.2-1,2-0.7,3.4
		c0.5,1.4,1.3,2.7,2.2,3.8l2.4,3.7l0.2-2.9c-2.5,0.4-5.2,0.2-7.6-0.7c-1.1-0.4-1.2,1-1.1,1.7c0.3,1.2,1.1,2.2,2.2,2.7
		c2.7,1,5.6,1.2,8.4,0.8c1.4-0.2,0.6-2.3,0.2-2.9l-2.6-3.8c-0.1-0.2-1-1.8-1.2-1.8c0.5,0-0.1,1.6,0.4,0.4c0.2-0.4,0.3-0.7,0.4-1.1
		c0.8-2.6,0.6-5.3-0.3-7.8c-0.9-2.6-2.3-4.9-4.3-6.9c-2.1-2-4.6-2.4-7.4-2c-4.4,0.6-9.4,2.1-11.7,6.2c-1.2,2.4-1.7,5.2-1.3,7.9
		c0.2,2.7,1,5.3,2.3,7.6c1.6,2.7,4.4,4.4,7.6,4.6c3.2,0.2,6.1-1.4,8.8-2.9C141.7,97.1,139.1,92.8,137.5,93.7L137.5,93.7z"></path></g></svg>