<svg xmlns="http://www.w3.org/2000/svg" width="636.258" height="594.146" viewBox="0 0 636.258 594.146"><defs><style>.a{fill:#fff;}.b{fill:#000005;}.c{fill:#59be4c;}.d{fill:#fabb32;}.e{fill:#d02d29;}</style></defs><g transform="translate(-25.983 -40.2)"><g transform="translate(25.983 413.227)"><path class="a" d="M105.818,410.6S88.8,452.437,88.8,462.081s12.48,15.175,26.237,15.175,32.193-6.524,32.193-17.16-18.862-49.07-18.862-49.07Z" transform="translate(0.287 -258.326)"/><path class="b" d="M103.564,409.721c-3.545,8.651-6.949,17.444-10.069,26.378-2.127,5.956-4.255,12.055-5.815,18.295a48.253,48.253,0,0,0-1.276,6.524,13.232,13.232,0,0,0,2.978,8.793c5.956,7.375,16.735,9.927,25.669,10.353A53.028,53.028,0,0,0,141,474.816c5.673-2.836,11.2-7.658,10.353-14.607-.709-5.673-2.978-11.346-5.106-16.593a298.169,298.169,0,0,0-13.615-30.775l-.284-.567a5.948,5.948,0,0,0-4.964-2.695L104.84,409.3c-1.418,0-1.844,1.135-.993,2.127a6.258,6.258,0,0,0,4.538,2.127l22.549.284-4.964-2.695q5.956,12.126,11.062,24.677c2.411,5.673,4.538,11.487,6.382,17.3a28.952,28.952,0,0,1,1.135,6.1,9.675,9.675,0,0,1-3.262,7.375c-5.531,5.531-14.04,7.8-21.557,8.793s-17.018.567-23.117-3.971c-4.4-3.262-4.255-8.084-3.12-12.764,1.418-5.673,3.262-11.346,5.247-16.877,3.262-9.644,7.375-18.862,10.778-28.364,0-.142.142-.284.284-.567C110.938,410.43,104.556,407.594,103.564,409.721Z" transform="translate(-0.72 -259.007)"/><path class="b" d="M100.8,410.785s3.971,8.935,12.055,7.942a12.7,12.7,0,0,0,10.495-7.658S103.069,409.225,100.8,410.785Z" transform="translate(5.306 -258.511)"/><path class="b" d="M99.489,412.916a19.731,19.731,0,0,0,8.226,8.793c5.531,2.836,12.622.993,16.593-3.687a12.411,12.411,0,0,0,2.411-3.971c.709-1.844-.709-5.106-2.978-5.389a150.624,150.624,0,0,0-19.571-.851,8.715,8.715,0,0,0-4.255.709c-1.418.993-1.276,3.12-.425,4.4.709,1.135,2.411,2.836,3.829,1.844.425-.284.284,0-.142,0,.284,0,.425-.142.709-.142a9.361,9.361,0,0,1,1.985-.142c1.844-.142,3.687,0,5.389,0h2.553a20.941,20.941,0,0,1,2.978.142c1.7.142,3.4.142,5.247.284l2.553.142-2.978-5.389c-.142.284-.142.425-.284.709,0,.142-.142.284-.142.425s.284-.567,0-.142a6.007,6.007,0,0,1-.709.993,9.545,9.545,0,0,1-1.985,2.127c.284-.284-.142.142-.284.142s-.425.284-.709.567l-1.7.851a9.361,9.361,0,0,1-3.829.851H111.4a2.768,2.768,0,0,1-.993-.142l-.709-.142s-.567-.142-.284,0-.142-.142-.284-.142c-.425-.284-.993-.425-1.418-.709.709.284,0,0-.284-.142l-.709-.567-.567-.567c.425.284.284.284,0,0a8.109,8.109,0,0,1-.993-1.135l-.426-.284c-.567-.709.284.425,0,.142a3.555,3.555,0,0,1-.567-.993l-.425-.851c-.567-1.276-2.411-2.695-3.829-1.986S98.922,411.64,99.489,412.916Z" transform="translate(4.489 -259.508)"/><path class="c" d="M134.358,372.917s-4.822-11.2-38.717-7.942-76.3,31.626-68.783,46.8,61.55,9.644,86.368-5.956S135.634,379.3,134.358,372.917Z" transform="translate(-25.983 -277.655)"/><path class="c" d="M117.593,378.069S95.611,385.3,82.421,342.9s3.262-43.113,18.437-36.731S131.633,366.014,117.593,378.069Z" transform="translate(-4.396 -303.229)"/><path class="c" d="M117.4,381.237s.851-34.32,19.146-36.022S139.808,384.925,117.4,381.237Z" transform="translate(12.248 -285.691)"/><path class="b" d="M123.745,460.419c0-4.113,0-8.225-.142-12.48-.284-10.211-.709-20.564-1.56-30.775-.993-13.189-2.411-26.237-4.68-39.284a228.674,228.674,0,0,0-9.5-38.575c-3.687-10.069-8.367-20.422-16.167-27.939-.851-.709-1.56-1.418-2.411-2.127-.567-.425-2.553.284-3.262.567-.284.142-2.127.709-1.7,1.135,8.084,6.666,13.189,16.593,17.018,26.237A214.761,214.761,0,0,1,111.548,374.9c2.411,13.047,3.971,26.378,5.106,39.71.993,10.637,1.56,21.415,1.844,32.193.142,3.4.142,6.807.142,10.211v3.12a3.457,3.457,0,0,0,0,1.7v.142s5.105-.425,5.105-1.56Z" transform="translate(-1.613 -300.771)"/><path class="b" d="M139.626,352.757l-27.513,35.455-3.971,4.964c-1.985,2.553,2.695,4.68,4.4,2.553l27.513-35.455,3.971-4.964c1.985-2.553-2.695-4.68-4.4-2.553Z" transform="translate(8.175 -282.88)"/><path class="b" d="M141.976,430.585a154.683,154.683,0,0,0-.284-29.215c-1.135-11.771-3.829-30.349-17.727-33.469a26.112,26.112,0,0,0-10.495.425,124.032,124.032,0,0,0-12.48,3.262A252.834,252.834,0,0,0,74.328,381.94,254.008,254.008,0,0,0,51.07,393.57a55.887,55.887,0,0,0-6.807,4.4c-1.276.993-3.262,2.411-3.262,4.255-.142,3.262,4.964,3.546,7.091,3.12a26.281,26.281,0,0,0,11.346-5.389,103.78,103.78,0,0,0,16.877-16.593l.993-1.135c2.411-3.12-4.113-5.247-5.956-2.836A131.307,131.307,0,0,1,60,391.584a47.468,47.468,0,0,1-9.5,7.375,7.914,7.914,0,0,0-1.135.709c-.142.142-.425.142-.567.284-.425.142-.709.284-1.135.425l-.567.142c-.851.284.709-.142-.284,0l-.993.142h-.142a2.974,2.974,0,0,1,1.56.567,1.489,1.489,0,0,1,.709,1.276c0,.142-.284.709,0,.425l-.142.142a7.433,7.433,0,0,1,1.56-1.418c.425-.425-.425.284,0,0l.567-.425,1.418-.993c1.135-.709,2.411-1.56,3.545-2.269,6.666-3.829,13.473-7.375,20.422-10.495A267.3,267.3,0,0,1,100.14,377.4c3.829-1.276,7.8-2.553,11.771-3.546a42.624,42.624,0,0,1,4.538-.993c.851-.142,1.56-.284,2.411-.425l.993-.142h1.418c.993,0-.284-.142.284,0a1.8,1.8,0,0,0,.851.142c.851.142-.284-.142.284.142l.851.425c.284.142.993.567.567.284s.284.142.425.284l.851.709.709.567.284.284c.425.567.851.993,1.276,1.56a13.9,13.9,0,0,1,1.844,3.12,57.1,57.1,0,0,1,4.822,18.578,206.512,206.512,0,0,1,.567,31.059v.567c-.284,3.262,6.807,3.829,7.091.567Z" transform="translate(-19.703 -276.326)"/></g><g transform="translate(329.68 148.14)"><path class="d" d="M319.383,322.115c5.106,15.317,91.474,20,117.285,1.276,0,0-25.811-101.968-27.655-106.081S425.889,193.2,425.889,193.2s-37.44-11.629-49.07-7.091S356.4,188.8,356.4,188.8s-64.528,19-57.437,45.808S319.383,322.115,319.383,322.115Z" transform="translate(-215.749 -87.56)"/><path class="b" d="M447.166,417.6l3.262,9.927s69.35.425,45.666,8.226c-1.7.567-48.361,14.324-48.361,14.324l-15.884-9.36,1.7,13.189-14.324,1.135L409.3,426.393Z" transform="translate(-169.377 9.688)"/><path class="b" d="M418.953,456.042,408.6,426.118l39.426-9.218,3.4,10.069c12.338,0,49.921.709,50.771,5.673.284,1.418-1.418,2.553-5.389,3.829-1.7.567-46.517,13.757-48.5,14.324l-.284.142-15.033-8.793,1.56,12.48Zm-8.509-28.789,9.5,27.371,13.047-.993-1.7-13.9,16.877,9.927c3.971-1.135,46.517-13.615,48.077-14.182,4.4-1.418,4.4-2.269,4.4-2.269-.284-2.127-19.429-4.4-49.921-4.538h-.425l-3.262-9.786Z" transform="translate(-169.67 9.395)"/><path class="b" d="M386.959,428.318s1.844,27.229.709,27.229-17.444-.425-17.444-.425V444.2l-7.942,12.055-54.459-2.127s-1.7-3.971,10.495-8.367,31.909-10.495,31.909-10.495l.425-16.167Z" transform="translate(-211.848 10.315)"/><path class="b" d="M384.566,429.158c.284,4.4.567,8.793.709,13.331.142,2.978.284,6.1.284,9.218,0,.709.284,4.255-.142,4.68l2.411-.709h0l3.971-.567c-5.815,0-11.629-.284-17.444-.284l.567.142v-10.92c0-.284-6.382.567-6.949,1.418l-7.942,12.055,6.382-1.418-47.651-1.985-6.807-.284.567.142a2.965,2.965,0,0,1,.567-2.411c2.127-2.978,6.524-4.538,9.786-5.673,8.226-2.978,16.593-5.673,24.96-8.226l6.1-1.985s.993-.284.993-.567l.425-16.167-6.807,1.418,31.768,8.084,4.538,1.135a11.746,11.746,0,0,0,4.4-.567c.425-.142,2.695-.851,2.269-.993l-31.768-8.084-4.538-1.135c-.709-.142-6.807.567-6.807,1.418l-.425,16.309.993-.567L331.525,441.5c-4.538,1.418-9.218,2.978-13.757,4.68-3.829,1.276-8.367,2.836-11.062,5.815-.709.709-1.7,2.127-1.276,3.262.142.142.284.142.567.142l28.08,1.135,18.72.709c3.687.142,7.516.567,11.2-.142a5.482,5.482,0,0,0,2.978-1.135,2.286,2.286,0,0,0,.567-.993l2.695-4.113,4.538-6.949-6.949,1.418V456.1c.142.142.284.142.567.142l9.644.142c4.113.142,8.226.425,12.2-.567,1.7-.425,2.269-.567,2.269-2.127v-4.538c-.142-4.255-.284-8.509-.567-12.906-.142-2.836-.284-5.673-.567-8.509C391.515,427.456,384.566,428.165,384.566,429.158Z" transform="translate(-212.858 10.184)"/><path class="a" d="M420.739,284.936l75.023,188.478L439.6,486.037,387.128,351.45V489.582L322.6,486.746,331.676,282.1Z" transform="translate(-205.635 -46.978)"/><path class="b" d="M419.351,285.147l7.516,18.862,17.869,44.957,21.7,54.459,18.72,47.084,6.24,15.458c.993,2.411,1.7,4.964,2.836,7.233,0,.142.142.142.142.284l.284-2.269-49.07,11.062-7.091,1.56,3.829,3.546-5.247-13.331L424.6,441.858,409.423,403l-13.047-33.611c-2.127-5.389-4.113-10.92-6.382-16.309,0-.142,0-.142-.142-.284a6.413,6.413,0,0,0-2.836-3.262c-.709-.425-1.7-.567-1.7.567V485.964a4.049,4.049,0,0,0,0,1.844v.284l.567-.993-21.84-.993-34.6-1.56-7.942-.284,4.255,4.964L326.6,468.8l2.127-48.928,2.695-59,2.269-51.055.709-16.877.284-5.247a17.167,17.167,0,0,0,.142-2.695v-.284l-.567.993,30.066.993,47.935,1.56,11.062.284c1.418,0,.142-2.553-.142-2.978-.709-1.135-1.985-2.836-3.4-2.836l-30.066-.993-47.935-1.56-11.062-.284c-.567,0-.567.567-.567.993l-.851,20.422-2.127,48.928-2.695,59L322.2,460.295l-.709,16.877a74.339,74.339,0,0,0-.284,7.942v.284c-.142,1.7,2.411,4.822,4.255,4.964l21.84.993,34.746,1.56,7.942.284c.567,0,.567-.567.567-.993V359.745c0-1.7.142-3.546,0-5.389v-.284l-4.538-2.695,5.247,13.331L403.892,396.9l15.175,38.859,13.189,33.611c2.127,5.389,4.113,10.92,6.382,16.309,0,.142.142.142.142.284.425.993,2.411,3.971,3.829,3.545l48.928-11.062,7.091-1.56c1.135-.284.425-1.56.284-2.269L491.4,455.757,473.526,410.8,451.4,356.766l-18.72-47.084c-2.978-7.658-5.815-15.317-9.076-22.833l-.142-.284c-.567-1.276-1.985-3.262-3.4-3.546S418.925,284.3,419.351,285.147Z" transform="translate(-206.232 -47.898)"/><path class="a" d="M346.5,260.525S398.548,168.2,439.392,168.2s55.168,30.775,50.062,52.757c-6.524,28.931-108.067,73.888-119.979,68.5S346.5,260.525,346.5,260.525Z" transform="translate(-195.64 -94.61)"/><path class="b" d="M350.7,263.128c3.12-5.531,6.524-10.92,9.927-16.309a370.323,370.323,0,0,1,24.818-34.32c9.5-11.487,20.138-23.117,32.335-31.484a73.777,73.777,0,0,1,8.509-4.964,39.362,39.362,0,0,1,8.084-2.978,41.571,41.571,0,0,1,4.113-.709l.993-.142h3.829a62.64,62.64,0,0,1,14.607,2.127,43.4,43.4,0,0,1,20.138,11.771,28.174,28.174,0,0,1,3.12,3.829,48.881,48.881,0,0,1,2.836,4.538,1.075,1.075,0,0,1,.284.567,4.246,4.246,0,0,0,.567,1.135,18.945,18.945,0,0,1,.993,2.553c.567,1.56.993,3.12,1.418,4.68a36.856,36.856,0,0,1-.142,18.011s.142-.567,0,.142l-.284.709a7.6,7.6,0,0,1-.709,1.56,15.954,15.954,0,0,1-1.7,2.978l-.425.709-.142.284c-.425.567-.709.993-1.135,1.56-.851.993-1.7,2.127-2.695,3.12-9.36,10.069-20.989,17.586-32.76,24.535a345.57,345.57,0,0,1-41.695,20.706c-3.12,1.276-6.382,2.553-9.644,3.829-2.695.993-5.105,1.844-8.226,2.836a73.146,73.146,0,0,1-13.331,3.262l-1.135.142h-1.418c-.567,0-.993-.425-.142,0a1.063,1.063,0,0,0-.709-.142c-.567-.142.567.284.142,0s-.993-.425-1.418-.709a15.476,15.476,0,0,1-4.113-3.262c-5.531-5.389-9.786-12.338-13.473-19.146l-.851-1.7-.425-.709c-.425-.709.284.567,0,0L350.272,261a4.018,4.018,0,0,0-4.255-2.553,2.836,2.836,0,0,0-1.985,3.545c0,.142,0,.284.142.284a96.3,96.3,0,0,0,8.509,14.891,71.193,71.193,0,0,0,8.793,10.778c2.411,2.411,5.531,5.106,8.935,5.956,3.4.993,7.658.142,11.062-.709a174.847,174.847,0,0,0,16.735-5.105,339.212,339.212,0,0,0,41.979-19c13.473-7.233,26.946-15.317,38.575-25.528a61.32,61.32,0,0,0,11.771-13.189c3.12-4.964,3.971-10.495,4.113-16.309a46.74,46.74,0,0,0-21.273-39,58.863,58.863,0,0,0-27.513-8.793,43.592,43.592,0,0,0-21.273,3.12c-13.757,5.815-25.244,16.877-35.313,27.655a325.167,325.167,0,0,0-29.215,37.582c-5.247,7.8-10.353,15.742-15.175,23.968l-.709,1.135C342.756,262.844,348.57,266.815,350.7,263.128Z" transform="translate(-196.718 -95.512)"/><path class="a" d="M424.3,235.535s3.687-8.651,5.815-15.175,8.793-6.524,7.233,6.666S424.3,235.535,424.3,235.535Z" transform="translate(-163.104 -74.585)"/><path class="b" d="M427.1,237.461c1.7-3.829,3.262-7.8,4.68-11.771l1.276-3.829a6.908,6.908,0,0,0,.425-.993,4.313,4.313,0,0,1,.709-.993c.142-.284.425-.425.567-.709.142-.142.284-.142.425-.284l.142-.142h0c.284-.142.425-.142.709-.284h.425c.284,0-.425-.142,0,0s-.567-.284-.142,0c0,0-.709-.425-.284-.142s-.567-.425-.284-.284.284.425-.284-.284c.142.142.142.284-.142-.142.142.142.142.284.284.425.142.284-.284-.567-.142-.142l.142.142.284.567c-.142-.425,0,.142,0,.284a18.741,18.741,0,0,1,0,7.942,11.336,11.336,0,0,1-2.553,5.815,5.634,5.634,0,0,1-3.687,1.985l-.851.284h-1.418a9.577,9.577,0,0,1-1.985-.284h0l-.284-.142-.567-.142-.567-.142c-.993-.425-1.418.284-1.135,1.276a5.034,5.034,0,0,0,2.836,2.553,13.373,13.373,0,0,0,6.24.851,7.776,7.776,0,0,0,4.538-1.985,10.681,10.681,0,0,0,3.12-5.815,21.785,21.785,0,0,0,.284-9.076,9.5,9.5,0,0,0-3.687-6.1,4.281,4.281,0,0,0-4.964-.425,7.527,7.527,0,0,0-2.695,4.113c-1.7,5.106-3.687,10.211-5.815,15.175-.142.284.284,1.135.425,1.276a6.723,6.723,0,0,0,1.418,1.418C425.261,237.745,426.679,238.454,427.1,237.461Z" transform="translate(-163.782 -75.092)"/><path class="a" d="M417.7,238.635s3.687-8.651,5.815-15.175,8.793-6.524,7.233,6.666S417.7,238.635,417.7,238.635Z" transform="translate(-165.864 -73.289)"/><path class="b" d="M420.842,240.065c1.7-3.829,3.12-7.658,4.538-11.629a27.572,27.572,0,0,1,2.411-5.956h0a.5.5,0,0,0,.142-.284l.284-.284c.284-.142.425-.425.709-.567.284-.284-.284.142.142,0l.425-.142c.284-.142-.567,0-.142,0h0s-.709-.142-.425-.142-.567-.142-.425-.142c.567.142-.709-.425-.142-.142-.709-.425-.567-.284-.284-.142s.284.284,0,0,0,.142.142.284c-.284-.284-.142-.142,0,.142a1.09,1.09,0,0,0,.284.425c.142.142.284.709.142.284a6.143,6.143,0,0,1,.142.709,21.318,21.318,0,0,1,.142,7.942,12.432,12.432,0,0,1-2.411,5.815,9.766,9.766,0,0,1-1.844,1.56c-.284.142,0,0-.142.142l-.567.142a2.671,2.671,0,0,1-1.135.284h-.142c.567-.142.142,0,0,0h-1.276c-.284,0-.284-.142.142,0a2.413,2.413,0,0,0-.993-.142l-.425-.142c-.567-.142.425.142.142,0a3.559,3.559,0,0,0-1.418-.284c-.567,0,.851.284.425.142H419c-.709-.284-2.553-.851-2.978.142s1.418,1.985,1.985,2.127a15.848,15.848,0,0,0,7.233,1.135,9.921,9.921,0,0,0,5.105-1.985,10.531,10.531,0,0,0,3.262-5.673,24.494,24.494,0,0,0,.425-9.076,7.24,7.24,0,0,0-3.262-5.389,5.905,5.905,0,0,0-6.1-.425,7.189,7.189,0,0,0-2.836,3.971c-1.7,5.247-3.687,10.353-5.815,15.316-.425.993,1.276,1.985,1.985,2.127S420.416,241.058,420.842,240.065Z" transform="translate(-166.595 -73.725)"/><path class="a" d="M411,241.535s3.687-8.651,5.815-15.175,8.793-6.524,7.233,6.665S411,241.535,411,241.535Z" transform="translate(-168.666 -72.076)"/><path class="b" d="M413.98,243.3c1.7-3.829,3.262-7.8,4.68-11.771a21.886,21.886,0,0,1,2.411-5.956c.142-.142.142-.284.284-.425l.142-.142c.284-.284-.284.142,0,0s.425-.425.709-.567l.284-.142c.284-.142-.284,0,0,0h.425c-.709-.142-.567-.142-.284,0s.425.142-.284-.142c.425.142-.567-.284-.284-.142s-.709-.425-.284-.142-.142,0-.284-.284l.142.142c.284.284-.142-.284-.142-.142.142.142.142.284.284.425.284.425-.142-.284.142.142l.425,1.276a3.122,3.122,0,0,1,.142,1.135,8.722,8.722,0,0,1,.142,1.985c0,1.56-.142,3.12-.284,4.68a12.431,12.431,0,0,1-2.411,5.815,6.664,6.664,0,0,1-1.7,1.276c-.284.142-.709.284-.993.425.284-.142,0,0-.142,0l-.567.142a3.123,3.123,0,0,1-1.135.142h-.709a2.414,2.414,0,0,1-.993-.142c-.284-.142-.851-.142,0,0h-.425a4.2,4.2,0,0,0-1.418-.284c-.567,0,.709.284.142,0h-.284c-.567-.284-2.411-.709-2.411.425s1.56,2.127,2.411,2.411a14.831,14.831,0,0,0,6.949.993,8.4,8.4,0,0,0,4.68-1.844,10.639,10.639,0,0,0,3.4-5.815,23.744,23.744,0,0,0,.425-8.935,7.625,7.625,0,0,0-3.12-5.531,5.427,5.427,0,0,0-5.956-.851,6.735,6.735,0,0,0-2.836,3.971c-1.7,5.106-3.687,10.353-5.815,15.317-.425.993.851,1.985,1.7,2.411S413.555,244.293,413.98,243.3Z" transform="translate(-169.377 -72.564)"/><ellipse class="a" cx="82.965" cy="95.019" rx="82.965" ry="95.019" transform="matrix(0.957, -0.29, 0.29, 0.957, 4.665, 171.336)"/><path class="b" d="M420.632,287.829a103.656,103.656,0,0,1,1.276,56.586c-4.538,16.877-13.615,32.477-27.229,43.68a71.366,71.366,0,0,1-47.084,16.593,77.411,77.411,0,0,1-45.24-16.735,99.52,99.52,0,0,1-31.768-43.68,105.069,105.069,0,0,1-5.106-56.87c3.4-17.3,11.487-33.753,24.109-45.95a72.28,72.28,0,0,1,45.666-20.564A75.222,75.222,0,0,1,381.348,233.8a97.1,97.1,0,0,1,34.179,40.986,69.244,69.244,0,0,1,5.106,13.047,5.168,5.168,0,0,0,3.687,2.695c.709.142,3.546.425,3.12-1.135a107.489,107.489,0,0,0-30.917-48.928A93.51,93.51,0,0,0,347.169,217.2a76.894,76.894,0,0,0-51.622,11.346c-15.175,9.786-26.379,24.96-32.619,41.979a104.116,104.116,0,0,0-3.12,58.146,109.013,109.013,0,0,0,27.8,51.481,93.831,93.831,0,0,0,47.651,26.8,76.869,76.869,0,0,0,52.331-6.807,80.926,80.926,0,0,0,35.88-39.142,101.488,101.488,0,0,0,7.091-56.87,130.742,130.742,0,0,0-3.4-14.749,4.909,4.909,0,0,0-3.687-2.695C423.043,286.552,420.207,286.269,420.632,287.829Z" transform="translate(-233.041 -74.405)"/><ellipse class="d" cx="76.299" cy="91.048" rx="76.299" ry="91.048" transform="matrix(0.957, -0.29, 0.29, 0.957, 0, 175.187)"/><path class="a" d="M287.742,275.927c-.142,7.233,0,14.607.425,21.84a58.779,58.779,0,0,0,1.7,12.2,6.027,6.027,0,0,0,3.262,3.687,25.822,25.822,0,0,0,11.2,3.4,26.36,26.36,0,0,0,8.084-1.56q5.744-1.7,11.487-3.829c8.935-3.262,17.586-6.807,26.378-10.495,5.247-2.127,10.353-4.4,15.6-6.666,1.844-.851-3.545-3.262-3.971-3.546a32.411,32.411,0,0,0-5.247-1.7,5.593,5.593,0,0,0-3.4-.142q-17.657,7.871-35.739,14.891a145.667,145.667,0,0,1-21.415,7.091l-.993.142h-1.56c-.851.142.851.142.567,0l.425.142a26.339,26.339,0,0,1,8.084,2.978c-.142-.142,1.135.851.709.567,1.418,1.135.284.567.284.284l-.425-.851c-1.418-3.12-1.418-7.091-1.7-10.353-.567-7.8-.709-15.742-.567-23.684,0-.709-1.135-1.418-1.56-1.7a26.474,26.474,0,0,0-4.538-2.127c-.567-.142-7.233-2.269-7.233-.851Z" transform="translate(-220.272 -49.881)"/><path class="a" d="M367.831,238.845c4.964,0,23.258-10.778,23.258-10.778s10.636,17.018,14.891,17.586,1.56-7.091,1.56-7.091,4.964,10.211,8.651,6.24-5.815-22.975-5.815-22.975,13.615,14.324,14.607,10.353-10.211-19.855-18.437-25.244c-20-13.331-67.506-3.829-81.546-.567a41.322,41.322,0,0,0-13.473,5.389c-6.524,3.971-13.473,10.778-10.636,20.848C305.714,249.907,367.831,238.845,367.831,238.845Z" transform="translate(-214.986 -81.298)"/><path class="b" d="M368.811,240.67c5.673-.142,11.062-3.262,15.884-5.673,3.546-1.844,7.091-3.687,10.495-5.673l-6.524-.284a126.675,126.675,0,0,0,8.084,11.346,22.664,22.664,0,0,0,5.815,5.815c2.553,1.56,8.084,2.411,9.927-.709,1.135-1.986.142-4.822-.425-6.807l-6.807.709a19.867,19.867,0,0,0,4.255,5.956c2.695,2.553,8.793,3.546,11.346.142,1.56-1.986.709-5.247.284-7.516a64.723,64.723,0,0,0-3.4-10.069c-.851-1.985-1.7-4.113-2.695-5.956l-6.807.709c1.844,1.985,3.829,3.829,5.815,5.673,2.553,2.411,5.531,5.389,9.218,6.24,1.7.425,5.247.567,6.382-1.276.709-1.276,0-2.978-.567-4.113A46.328,46.328,0,0,0,421,216.419a41.7,41.7,0,0,0-11.629-10.636,49.374,49.374,0,0,0-13.9-4.964c-11.346-2.269-22.975-1.985-34.462-1.135a266.96,266.96,0,0,0-29.924,4.4c-10.637,2.127-22.266,5.247-29.357,14.04A15.818,15.818,0,0,0,298.894,234a11.352,11.352,0,0,0,5.531,5.389c7.091,3.687,15.742,4.255,23.542,4.538a218.9,218.9,0,0,0,41.979-3.546l.709-.142c.993-.142,2.411-.993,1.276-1.844s-3.545-.709-4.822-.567l-.709.142c-.567.142-.851.142,0,0l-1.276.142c-2.411.425-4.822.709-7.091.993-3.262.425-6.666.851-9.927,1.135l-5.531.425-2.978.142h-2.411c-1.985.142-3.971.142-5.956.142h-4.255c-.284,0-1.7-.142-1.135,0-1.844-.142-3.687-.284-5.531-.567l-1.276-.142-.709-.142a23.043,23.043,0,0,1-2.695-.567,18.209,18.209,0,0,1-7.091-2.836,9.009,9.009,0,0,1-3.687-6.949c-1.418-12.622,13.047-20,23.4-22.266,7.233-1.7,14.607-2.978,21.84-3.971a168.578,168.578,0,0,1,30.491-1.844c8.084.284,17.3,1.56,24.251,6.24a44.539,44.539,0,0,1,10.495,10.778c2.553,3.4,5.531,7.233,6.807,11.487a7.119,7.119,0,0,1,.284,1.7v.425l-.142.142.709-.425c3.546.142,4.68.142,3.4-.284,0-.142.709.284.142,0h0l-.851-.142a17.207,17.207,0,0,1-1.985-1.418,85.635,85.635,0,0,1-7.516-6.807l-1.418-1.56a5.424,5.424,0,0,0-4.4-.993c-.709.142-3.12.425-2.553,1.7a65.456,65.456,0,0,1,6.1,16.167,15.436,15.436,0,0,1,.425,4.4,2.4,2.4,0,0,1-.425,1.418l-.567.567a5.593,5.593,0,0,1,3.4-.142l-.142-.142a25.682,25.682,0,0,1-4.68-6.24c-.851-1.7-7.516-1.418-6.807.709-.284-.709.142.284.142.567.142.567.284,1.135.425,1.844a10.045,10.045,0,0,1,.142,1.985c-.142.425-.142.851-.284,1.276l2.411-.284c1.135.284,1.418.425.993.142h0c-.142,0-.142-.142-.284-.142-.425-.284-.851-.709-1.276-.993a21.371,21.371,0,0,1-2.978-3.262,113.362,113.362,0,0,1-8.793-12.338c-1.135-1.7-5.105-1.135-6.524-.284-2.978,1.7-5.956,3.4-9.076,4.964a65.105,65.105,0,0,1-7.091,3.4,33.2,33.2,0,0,1-3.4,1.276l-.425.142c.284-.142-.284.142-.425.142-.709.142-.284-.142,0,0h.142c-.851,0-3.546.142-3.546,1.418S368.1,240.67,368.811,240.67Z" transform="translate(-215.966 -81.705)"/><path class="b" d="M378.412,233.48a1.409,1.409,0,0,1-1.418-.993,58.123,58.123,0,0,0-6.524-13.331,1.436,1.436,0,1,1,2.411-1.56h0a59.825,59.825,0,0,1,6.949,14.182,1.259,1.259,0,0,1-.993,1.7h0A.266.266,0,0,1,378.412,233.48Z" transform="translate(-185.716 -74.231)"/><path class="a" d="M339.277,136.9s-7.091,12.764-17.3,14.749S291.2,154.2,291.2,164.838s14.466,11.2,22.833,7.658c0,0,3.545,27.229,20.847,31.2s23.826-2.127,27.229,8.509c0,0,23.542,14.466,21.131-6.524-.425-3.262-1.276-44.531-28.222-51.906C354.877,153.635,339.7,150.373,339.277,136.9Z" transform="translate(-218.766 -107.7)"/><path class="b" d="M337.946,135.153a36.508,36.508,0,0,1-9.36,10.92c-5.673,4.255-12.764,4.113-19.429,5.247-5.815.993-13.047,1.985-17.16,6.524-4.822,5.105-1.56,14.04,3.546,17.727,5.815,4.4,14.466,3.687,20.848.993l-3.829-4.822a64.461,64.461,0,0,0,3.546,13.9c2.978,7.942,7.658,15.884,15.317,20,4.4,2.411,9.786,2.978,14.607,3.4,3.687.284,7.658-.142,11.346.567.567.142.993.284,1.418.425.142,0,.709.425.709.284s.851.567.284.142l.284.284c-.142-.142-.425-.425,0-.142.142.142.425.567,0-.142.142.142.142.284.284.567h0c.142.142.142.425.284.567a7.124,7.124,0,0,0,.709,1.844c.993,1.985,2.978,2.836,4.822,3.829,4.4,2.269,10.495,4.822,15.458,2.978,5.531-2.127,4.68-9.36,4.255-14.182-.993-13.615-3.829-27.513-11.2-39.142-4.4-7.091-10.92-13.047-19.146-15.6l-1.418-.425c-.425-.142.425.142.142,0l-.567-.142a13.008,13.008,0,0,1-3.262-1.276,24,24,0,0,1-4.113-2.411,7.434,7.434,0,0,1-1.56-1.418l-.851-.851c.142.142-.709-1.135-.567-.709a10.616,10.616,0,0,1-1.418-5.106,6.056,6.056,0,0,0-2.269-4.255c-1.135-.851-2.127-.425-1.985,1.135.425,10.353,8.226,18.72,18.011,21.415a28,28,0,0,1,10.636,5.389,30.7,30.7,0,0,1,8.084,10.495c.425.851.851,1.844,1.276,2.695a39.315,39.315,0,0,1,1.418,3.687c.709,2.127,1.276,4.255,1.844,6.382a81.136,81.136,0,0,1,1.985,11.487c.284,2.269.425,4.538.567,6.807.284,3.12.709,7.516-2.553,9.36s-7.233.567-10.353-.567a27.858,27.858,0,0,1-4.68-2.127l-1.418-.851c-.284-.142-1.276-.709,0,0l1.985,2.836c-1.56-4.822-4.538-9.076-9.786-9.927a36.48,36.48,0,0,0-6.807-.284,62.01,62.01,0,0,1-10.211-.851,21.627,21.627,0,0,1-8.225-2.695,18.854,18.854,0,0,1-5.247-4.822l-1.7-2.553c-.284-.567-.709-1.135-.993-1.7l-.425-.851-.284-.567h0a34.634,34.634,0,0,1-1.418-3.4c-.142-.567-.425-.993-.567-1.56l-.284-.851-.142-.284a43.385,43.385,0,0,1-1.418-5.815,8.3,8.3,0,0,1-.284-1.844c0-.284.142.851,0,.142v-.142c-.142-1.418-1.844-5.673-3.829-4.822-4.964,2.127-12.055,2.978-17.018.284a3.921,3.921,0,0,1-1.844-1.56c.142.142.142.284.284.425-.284-.993,0,.567-.142-.567a5.817,5.817,0,0,1-.142-1.56,6.92,6.92,0,0,1,3.546-5.247c4.964-3.262,11.346-4.113,17.018-4.964,2.836-.425,5.815-.851,8.651-1.276a21.716,21.716,0,0,0,9.076-3.971,39.584,39.584,0,0,0,9.786-11.346C343.051,138.84,339.08,133.167,337.946,135.153Z" transform="translate(-219.421 -108.789)"/><path class="b" d="M375.612,189.905s14.324,3.829,16.593-3.829-6.807-5.956-6.807-5.956,10.636-15.742-3.829-18.72c0,0,12.2-11.913,2.695-23.258s-28.506-4.113-28.506-4.113.567-17.3-14.324-15.175-11.346,12.48-11.346,12.48-9.5,1.135-9.786,7.091,6.807,8.367,6.807,8.367,2.553,17.018,15.6,14.607l12.338,21.415a16.726,16.726,0,0,0,.284,15.742C360.154,206.5,376.321,200.825,375.612,189.905Z" transform="translate(-206.599 -115.323)"/><path class="b" d="M376.553,193.729c4.4,1.135,9.786,1.844,14.182.284a8.5,8.5,0,0,0,6.1-7.516,7.583,7.583,0,0,0-5.531-8.226,13.9,13.9,0,0,0-6.382-.284l4.255,5.247a24.659,24.659,0,0,0,4.113-10.211c1.135-7.091-3.971-12.2-10.636-13.757l2.695,5.106c5.815-5.673,8.651-14.749,5.105-22.408-4.822-10.636-16.877-13.473-27.513-12.055a36.732,36.732,0,0,0-7.8,1.844l4.822,3.829c.142-5.815-1.844-12.2-6.382-16.026-4.255-3.545-9.927-3.829-15.033-2.553-4.4.993-8.793,3.4-10.353,7.942a11.042,11.042,0,0,0-.142,7.091l1.56-2.836c-4.4.567-10.211,2.978-11.346,7.8-1.418,6.382,4.255,11.629,9.786,13.615l-3.12-2.978a29.27,29.27,0,0,0,3.545,9.644c3.687,5.956,9.644,9.218,16.735,8.084l-4.4-2.269,12.338,21.415.142-2.978c-3.829,6.666-3.262,16.877,2.836,21.982,5.531,4.538,13.757,3.262,18.862-1.135a13.907,13.907,0,0,0,4.822-10.636,4.257,4.257,0,0,0-3.12-3.829c-1.418-.425-3.4.284-3.262,2.127.142,4.964-3.687,8.793-8.225,9.927a9.649,9.649,0,0,1-2.836.284,3.122,3.122,0,0,1-1.135-.142s-.993-.284-.425-.142c-.284-.142-.425-.284-.709-.284.851.425-.851-.851-.284-.142a2.49,2.49,0,0,1-.567-.709c.142.284.284.709-.142-.425a12.149,12.149,0,0,1-1.418-5.815,18.518,18.518,0,0,1,1.7-6.807c.142-.425-.284.567-.284.425a2.558,2.558,0,0,0,.425-1.7,2.287,2.287,0,0,0-.425-1.276,4.974,4.974,0,0,0-.709-1.135l-6.24-11.062-5.389-9.36a4.29,4.29,0,0,0-4.4-2.269,11.49,11.49,0,0,1-3.12,0,4.508,4.508,0,0,1-1.276-.425l-.709-.425c-.284-.142-.567-.425-.142,0a7.793,7.793,0,0,1-1.276-.993l-.142-.142-.567-.567c-.142-.142-.284-.425-.425-.567s-.567-.709-.284-.425-.142-.284-.284-.425a4.72,4.72,0,0,1-.425-.851,20.087,20.087,0,0,1-1.135-2.553c.284.709-.142-.567-.284-.709a2.049,2.049,0,0,1-.284-.993,12.009,12.009,0,0,1-.567-2.411,4.167,4.167,0,0,0-3.12-2.978c-.425-.142.851.425.425.142a4.663,4.663,0,0,0-.851-.425,6.168,6.168,0,0,1-.993-.567c-.284-.142.425.284-.142-.142l-.709-.567a5.552,5.552,0,0,1-1.135-1.418,3.645,3.645,0,0,1,.142-2.978c1.276-2.269,4.964-3.4,7.658-3.687a2.32,2.32,0,0,0,1.7-2.836v-.142c-.142-.425-.142-.851-.284-1.135-.142-.567,0,.284,0,.142v-1.985a7.31,7.31,0,0,1,1.276-2.836,9.907,9.907,0,0,1,4.113-2.695,19.319,19.319,0,0,1,6.949-1.135,5.69,5.69,0,0,1,2.127.425c.142,0,.567.284.142,0l.567.284.425.284c.425.284-.425-.425.142,0,.284.284.567.425.851.709-.567-.425,0,0,.142.284s.709.993.567.567,0,0,0,.142.284.425.425.709l.425.851c.142.284.425.993.142.284a11.813,11.813,0,0,1,.567,2.127c.142.567.284,1.276.425,1.985v.425c.142.709,0-.425,0-.142v2.411c0,2.127,2.695,4.68,4.822,3.829a33.81,33.81,0,0,1,15.458-1.986,13.533,13.533,0,0,1,10.211,5.956c2.269,3.546,1.985,7.8.284,11.629a20.78,20.78,0,0,1-4.538,6.524c-1.844,1.844.993,4.822,2.695,5.105a11.816,11.816,0,0,1,2.127.567,4.186,4.186,0,0,1,.851.425,2.49,2.49,0,0,1,.709.567c-.425-.284-.142-.142.142.142s.284.567.142.142c.142.284.284.425.425.709-.284-.567.142.567.142.851.142.567,0-.142,0,.142v.709a15.624,15.624,0,0,1-.284,2.553,25.289,25.289,0,0,1-1.985,5.106l-.284.425h0l-.425.709-.425.709c-1.844,2.695,1.7,5.673,4.255,5.247l.425-.142c.567-.142-.851,0-.142,0h2.127c-.851-.142,0,0,.142,0l.425.142c-.425-.142-.567-.142-.142,0,.567.425-.709-.425,0,0-.567-.284-.142,0-.425-.425s0-.142,0,0v.851a4.035,4.035,0,0,1-1.7,2.978c-3.4,2.127-8.367,1.418-11.913.425a2.415,2.415,0,0,0-3.12,1.418,1.063,1.063,0,0,0-.142.709A3.8,3.8,0,0,0,376.553,193.729Z" transform="translate(-207.54 -116.311)"/><path class="a" d="M334.6,153.815s2.127-11.629,10.353-9.218,11.346,28.506-3.545,27.655" transform="translate(-200.617 -104.619)"/><path class="b" d="M339.029,155.286a17.646,17.646,0,0,1,.567-2.269,2.016,2.016,0,0,0,.284-.851c-.284.851.142-.425.284-.709a3.555,3.555,0,0,1,.567-.993c.284-.284.993-1.276.425-.709l.851-.851c.284-.284.709-.567,0-.142l.425-.284.709-.284c-.851.425-.142,0,.142,0h-.142c.142,0,1.418,0,.425-.142h.567c.142,0,.993.284.425,0,.284.142.567.142.709.284-.851-.284-.284-.142.142.142.142.142.284.284.425.284.425.284-.425-.567,0,0s.851.993,1.276,1.56-.284-.567,0,0c0,.142.142.284.142.425.142.425.425.709.567,1.135.284.709.567,1.56.851,2.411l.142.425c.284.709-.142-.567,0,.142.142.425.142.993.284,1.418a22.929,22.929,0,0,1,.284,5.389h0v.567c0,.142-.142.851-.142,1.135a18.893,18.893,0,0,1-.709,2.695c0,.142-.284.567,0-.142l-.425.851a4.974,4.974,0,0,1-.709,1.135s-.425.567-.142.142-.284.284-.284.284l-.851.851c.709-.567-.284.142-.567.284s-.851.284,0,0l-.567.284-.709.142c.993-.284.284,0,0,0h-1.135c-1.7-.142-3.687.567-4.255,2.411a3,3,0,0,0,2.553,3.4h.284c5.105.284,9.786-1.56,12.48-6.1a23.557,23.557,0,0,0-2.269-23.968,10.461,10.461,0,0,0-13.757-1.7,16.775,16.775,0,0,0-5.956,10.211c-.851,4.113,6.1,4.822,6.807,1.135Z" transform="translate(-201.642 -105.522)"/><path class="b" d="M317.518,149.6a2.2,2.2,0,0,0-1.276,2.836c0,.142.142.142.142.284,1.135,2.127,3.687.709,3.4-1.418a1.989,1.989,0,0,0-1.985-1.7Z" transform="translate(-208.353 -102.389)"/><path class="b" d="M320.329,165.495v.851c0,.284.142-.851,0-.284l-.851,2.553c-.142.284-.142.425-.284.709l-.142.425.142-.284c0,.142-.142.142-.142.284-.284.567-.709.993-.993,1.56l-.284.284h-.142c-.142.284.567-.567.142-.284s-.425.425-.709.709-.567.425-.709.567.284-.284.284-.142c-.142,0-.142.142-.284.142-.142.142-.284.142-.567.284l-.567.284c-.142.142-.851.284,0,0l-1.276.425-.709.142h-.284c.709-.142.284,0,.142,0-.567,0-1.135.142-1.56.142a2.779,2.779,0,0,0-2.836,2.411,2.209,2.209,0,0,0,2.127,2.269h.284a13.406,13.406,0,0,0,10.495-4.822,17.527,17.527,0,0,0,3.4-6.666c.142-.709.284-1.276.425-1.985a2.1,2.1,0,0,0-1.985-2.269h-.284a3.652,3.652,0,0,0-2.836,2.695Z" transform="translate(-211.448 -96.869)"/></g><g transform="translate(46.571 40.2)"><path class="e" d="M96.377,62.964A28.548,28.548,0,0,0,69.006,42.4h0A28.507,28.507,0,0,0,40.5,70.906h0v33.328H97.653V71.048A39.946,39.946,0,0,0,96.377,62.964Z" transform="translate(-40.5 -39.28)"/><path class="a" d="M336.439,379.18c-17.727,0-32.051-22.833-32.051-40.56V89.726c0-26.095-19.429-47.226-43.4-47.226H60.6A28.548,28.548,0,0,1,87.971,63.064h0l1.276,273.712a44,44,0,0,0,43.964,43.964H336.439Z" transform="translate(-32.094 -39.238)"/><path class="b" d="M337.3,377.022c-7.658-.142-13.9-4.538-18.578-10.353a44.79,44.79,0,0,1-9.644-21.84,88.808,88.808,0,0,1-.284-10.636V91.113c0-17.3-8.509-34.32-23.258-43.68a45.364,45.364,0,0,0-23.684-7.091H61.462c-1.7,0-3.262.851-3.262,2.695a4.065,4.065,0,0,0,3.545,3.545A24.917,24.917,0,0,1,82.877,58.069a28.993,28.993,0,0,1,2.553,5.673c.284.709,0-.425,0,0v12.48l.142,22.408.142,30.491L85.855,165l.284,38.433.142,38.291.142,35.171.142,29.5.142,20.989v9.786a47.678,47.678,0,0,0,17.018,36.448,49.736,49.736,0,0,0,32.335,11.346H337.443c1.7,0,3.262-.709,3.262-2.695v-1.56a3.71,3.71,0,0,0-3.4-3.687h0c-1.56,0-3.262.851-3.262,2.836a4.065,4.065,0,0,0,3.545,3.546h0l-3.545-3.546v1.56l3.262-2.695H143.15a100.954,100.954,0,0,1-16.026-.567,40.481,40.481,0,0,1-32.9-32.051,77.925,77.925,0,0,1-.709-12.906l-.142-17.16v-26.8l-.142-33.328-.142-37.44-.142-38.717L92.8,142.594l-.142-32.9L92.52,84.022,92.379,68V63.742a23.882,23.882,0,0,0-2.836-6.807A32.639,32.639,0,0,0,61.462,40.2l.284,6.24H262.562c16.167.142,29.924,10.778,35.88,25.669a56.612,56.612,0,0,1,3.546,21.131V338.447a50.624,50.624,0,0,0,14.466,34.462c5.531,5.673,13.047,10.069,21.273,10.211C342.265,383.262,341.414,377.022,337.3,377.022Z" transform="translate(-33.098 -40.2)"/><path class="e" d="M110.57,234.115a46.908,46.908,0,0,0,5.531,11.771c1.985,2.978,4.255,5.956,7.8,7.233,6.524,2.269,13.473-.284,18.578-4.4,4.538-3.829,8.084-9.218,11.2-14.182,3.971-6.1,7.658-12.48,11.2-18.862,1.985-3.4,3.829-6.949,5.673-10.495a4.547,4.547,0,0,0-.851-4.964,8.215,8.215,0,0,0-5.956-1.7,15.574,15.574,0,0,0-12.622,7.658c-.851,1.56-1.7,3.12-2.553,4.822s-1.844,3.4-2.836,5.247l-.851,1.56c-.851,1.56.851-1.418.142-.284l-1.985,3.4c-2.553,4.4-5.106,8.651-7.8,12.764l-3.829,5.531c-.567.709-1.135,1.418-1.7,2.269l-.851.851c-.851.993,1.7-1.844.993-1.135l-.567.567-.709.709c-1.418,1.276,2.411-1.56,1.135-.851-.709.425-.567,0,1.844-.993-1.418.567,3.12-.851,1.7-.567l2.127-.284h.709c2.553.142-.851-.425,1.276.142,1.7.425.142-.142-.284-.284,1.7.567,1.418.993.851.425l-.709-.567a20.736,20.736,0,0,1-2.269-2.695l.993,1.418a46.027,46.027,0,0,1-5.815-12.2c-.567-1.844-2.978-2.695-4.538-2.978a14.3,14.3,0,0,0-7.658,1.135c-3.546,1.418-8.793,5.105-7.375,9.927Z" transform="translate(-11.296 25.982)"/><path class="e" d="M112.493,96.615l14.324-.142,34.32-.284,41.553-.425,36.022-.425c5.815,0,11.629,0,17.586-.142h.284c1.276,0,2.695-.567,2.127-2.127s-2.836-2.269-4.255-2.269l-14.324.142-34.32.284-41.553.425-36.022.425c-5.815,0-11.771,0-17.586.142h-.284c-1.276,0-2.695.567-2.127,2.127s2.836,2.269,4.255,2.269Z" transform="translate(-12.226 -19.039)"/><path class="e" d="M112.675,142.411l13.9-.142,33.328-.425,40.277-.567,35.029-.425,17.018-.142h.284c.993,0,2.553-.284,1.844-1.56s-3.262-1.985-4.538-1.844l-14.04.142-33.328.425-40.419.425L127,138.723l-17.018.142H109.7c-.993,0-2.553.142-1.844,1.56s3.4,1.985,4.822,1.985Z" transform="translate(-12.408 0.402)"/><path class="e" d="M111.287,117.08l14.324-.142,34.32-.284,41.553-.425,36.022-.284c5.815,0,11.771.142,17.586-.142h.284c.993,0,3.4-.567,3.4-1.985s-2.836-1.418-3.687-1.418l-14.324.142-34.32.284-41.553.425-36.022.284c-5.815,0-11.771-.142-17.586.142H111c-.993,0-3.4.567-3.4,1.985s2.978,1.418,3.687,1.418Z" transform="translate(-12.439 -10.006)"/><path class="e" d="M112.31,165.789l13.9-.142,33.328-.425,40.277-.567,35.029-.425c5.673-.142,11.346-.142,17.018-.142h.284c1.135,0,2.695-.425,1.844-1.7s-3.12-1.985-4.4-1.985l-14.04.142-33.328.425-40.277.567-35.029.425c-5.673.142-11.346.142-17.018.142h-.284c-1.135,0-2.695.425-1.844,1.7s3.12,1.985,4.538,1.985Z" transform="translate(-12.469 10.067)"/><path class="e" d="M108.311,188.231l13.9-.142,33.328-.425,40.277-.567,35.029-.425c5.673-.142,11.346.142,17.018-.142h.284a9.6,9.6,0,0,0,4.4-1.985c.567-.425,1.985-1.844.425-1.844l-14.04.142-33.328.425-40.277.567-35.029.425c-5.673.142-11.346-.142-17.018.142h-.284a9.6,9.6,0,0,0-4.4,1.985c-.425.425-1.844,1.844-.284,1.844Z" transform="translate(-12.441 19.393)"/><path class="b" d="M118.032,118.226c3.971-2.269,7.658-4.68,11.487-7.091,2.978-1.985,5.956-4.113,8.793-6.382a26.328,26.328,0,0,0,5.815-6.1c1.7-2.836-.142-5.106-2.127-7.375-1.418-1.56-3.262-3.262-5.247-1.844a12.464,12.464,0,0,0-3.4,5.106,24.833,24.833,0,0,0-1.7,7.942,15.477,15.477,0,0,0,1.7,7.942c1.7,3.12,4.4,6.666,7.942,7.942s7.375.284,10.778-.851a38.186,38.186,0,0,0,12.622-7.091,32.528,32.528,0,0,0,7.8-9.218c1.135-1.985,2.411-4.538,1.985-6.949a11.952,11.952,0,0,0-2.978-4.964,5.339,5.339,0,0,0-3.262-2.269c-2.269-.142-3.971,1.7-5.106,3.4-3.262,4.4-5.531,11.2-4.113,16.735a16.67,16.67,0,0,0,7.233,9.5c3.262,1.985,7.233,1.418,10.778.425a41.042,41.042,0,0,0,22.266-15.742c1.418-1.985,3.262-4.822,2.836-7.516-.284-2.127-2.127-4.113-3.546-5.531a4.679,4.679,0,0,0-3.4-1.7c-2.269,0-4.113,1.985-5.247,3.687a25.69,25.69,0,0,0-3.545,8.367,19.636,19.636,0,0,0-.142,9.076,18.455,18.455,0,0,0,6.807,9.786c6.524,4.68,16.167-.851,21.557-4.964a48.065,48.065,0,0,0,9.076-9.5c1.7-2.411,3.546-5.247,3.829-8.226a6.206,6.206,0,0,0-1.135-3.545c-1.135-1.7-2.695-3.971-4.68-4.538-2.269-.567-4.538.851-5.956,2.553a18.755,18.755,0,0,0,3.262,26.378,1.958,1.958,0,0,0,.567.425c2.836,1.985,6.1,1.985,9.218,1.135a21.689,21.689,0,0,0,16.026-15.317,17.885,17.885,0,0,0,.709-3.971c0-1.135-1.7-2.836-2.411-3.687-.142-.284-2.127-2.127-2.127-1.418a20.263,20.263,0,0,1-3.687,10.211,20.6,20.6,0,0,1-7.942,6.807c-3.12,1.56-7.091,2.978-10.636,2.127a5.081,5.081,0,0,1-1.56-.567c-.425-.284-.993-.851-.567-.284a5.553,5.553,0,0,0,1.135,1.418c.284.142-.142-.425-.142-.284a6.912,6.912,0,0,1-.567-1.56,20.655,20.655,0,0,1-.284-7.8c.709-3.971,2.836-10.069,7.516-10.778h1.276c.142,0,.425.142.567.142-.425,0-3.12-3.971-3.12-3.829a13.758,13.758,0,0,1-.142,2.411,20.427,20.427,0,0,1-4.113,7.516c-4.538,5.956-10.778,11.487-18.011,13.9-2.978.993-6.524,1.844-9.5.709-.284-.142-.993-.709-1.276-.709s.709.709.851.993c-.142-.142.993,1.135.567.851-.142-.142.142.284,0-.142a11.372,11.372,0,0,1-.709-2.978,23.077,23.077,0,0,1,3.829-15.175,8.015,8.015,0,0,1,4.4-3.687c1.844-.425,2.978,1.418.425-1.56s-1.276-2.127-1.7-.142a19.319,19.319,0,0,1-4.255,7.375,46.072,46.072,0,0,1-8.651,7.942,38.548,38.548,0,0,1-11.629,5.673c-2.978.851-6.807,1.56-9.786.142-.284-.142-.425-.284-.709-.284s-.425-.425,0,.142a8.84,8.84,0,0,0,1.276,1.7c.425.284,0,0-.142-.284a9.306,9.306,0,0,1-.567-3.262,20.582,20.582,0,0,1,1.418-7.8c1.135-2.978,3.971-9.218,7.942-8.935a.521.521,0,0,1,.425.142c.425,0-.142-.142-.142-.142-.851.284-2.978-3.687-2.978-3.687v.284a17.379,17.379,0,0,1-.284,2.695,22.944,22.944,0,0,1-3.829,7.091,39.1,39.1,0,0,1-19.855,13.331c-2.836.851-5.956,1.418-8.793.284a5.748,5.748,0,0,1-1.276-.709c.142,0-.142-.142.142.142a2.489,2.489,0,0,1,.567.709s.993,1.418.567.709h0c-.142-.284-.142-.425-.284-.709-.142-.425-.284-.993-.425-1.418a21.124,21.124,0,0,1,2.127-13.189,7.229,7.229,0,0,1,3.12-3.687c.567-.284.851-.142,1.56-.142-.142,0,0,.142.142.142-.425.142-2.978-4.4-3.12-3.829-.142.284,0,.709,0,.993a10.592,10.592,0,0,1-3.546,4.68,64.343,64.343,0,0,1-6.807,5.531c-4.538,3.262-9.218,6.24-14.04,9.218-.851.425-1.7.993-2.553,1.418-.425.284,3.4,6.1,4.4,5.531Z" transform="translate(-10.107 -20.796)"/><path class="b" d="M114.952,163.191c4.113-2.269,8.084-4.822,11.913-7.375,2.978-1.985,5.956-4.113,8.793-6.382a35.517,35.517,0,0,0,6.524-6.524c1.276-1.844,2.269-4.4.567-6.24-2.269-2.269-5.956-1.276-8.226.284-4.113,2.978-5.815,9.076-6.1,13.9-.425,5.673,1.56,11.487,7.516,13.047,4.4,1.135,9.076-.142,13.189-1.7a44.681,44.681,0,0,0,13.331-7.658,39.738,39.738,0,0,0,8.367-9.786,14.472,14.472,0,0,0,2.553-7.516c-.142-2.978-2.695-4.255-5.531-3.829a12.067,12.067,0,0,0-7.516,4.822c-3.687,4.822-6.1,11.771-4.822,17.727,1.844,8.651,11.913,7.942,18.578,5.956a45.02,45.02,0,0,0,23.4-16.877c1.7-2.411,3.687-5.389,3.4-8.367s-3.546-4.113-6.382-3.687c-6.666.993-10.069,8.367-11.629,14.182-1.418,5.531-1.276,13.331,4.538,16.167,3.829,1.985,8.509,1.135,12.48,0a35.5,35.5,0,0,0,12.622-6.949,52.545,52.545,0,0,0,9.5-9.927c1.844-2.553,3.829-5.673,4.255-8.935s-1.844-4.822-4.68-4.822a11.87,11.87,0,0,0-8.935,4.4,20.56,20.56,0,0,0-3.687,18.011,10.226,10.226,0,0,0,5.247,6.807c3.971,1.844,8.509.993,12.338-.284a24.828,24.828,0,0,0,16.877-17.018,13.176,13.176,0,0,0,.709-4.113c.142-3.12-6.665-1.56-6.807,1.135a16.958,16.958,0,0,1-3.262,9.36,15.775,15.775,0,0,1-7.091,5.815,16.683,16.683,0,0,1-2.836.993c-.425.142-.851.142-1.276.284-.142,0-1.276.142-.851.142a4.367,4.367,0,0,1-2.695-.425,6.967,6.967,0,0,1-3.545-4.68,16.775,16.775,0,0,1-.425-7.516,17.9,17.9,0,0,1,2.269-6.524,11.307,11.307,0,0,1,.851-1.135c.284-.284.709-.709.284-.425s.284-.142.425-.284c.425-.425-.567.284.142,0s-.567.142,0,0-.709.142-.142,0-.284.142.142,0h0s-.142-.284-.142,0-.284-.425,0,0-.142-.425,0,.142.142.142.142.709c0,.425-.142.993-.142,1.418l-.425,1.276c-.284.567-.567,1.276-.851,1.844a21.413,21.413,0,0,1-2.553,3.687c-4.4,5.673-10.353,10.778-17.018,12.622a9.53,9.53,0,0,1-3.971.425h0l-.425-.142a2.016,2.016,0,0,1-.851-.284c.425.142-.284-.142-.425-.142a3.1,3.1,0,0,1-.709-.425,11.436,11.436,0,0,1-1.7-1.985,9.434,9.434,0,0,1-.993-3.4,22.2,22.2,0,0,1,.567-7.516,31.912,31.912,0,0,1,1.135-3.4c.284-.567.567-1.276.851-1.844l.425-.709c.142-.142.567-.851.284-.567a7.793,7.793,0,0,1,.993-1.276c.142-.142.284-.425.567-.567s-.425.284.284-.142l.425-.425c-.425.425-.425.142,0,0,.142,0-.851.284-.142.142,0,0-.851.142-.567.142.142,0,.567-.142,0,0s-.142,0,0,0H193.8c.284.284.142.142.142,0,.425.284-.142-.142,0,0,.284.142.284.284.142,0,.142.142.142.284.142.567.142.425,0-.284,0,.142a4.824,4.824,0,0,1-.142,1.418c0,.284,0-.142-.142.425a2.858,2.858,0,0,1-.284.851c-.284.567-.567,1.276-.851,1.844a34.014,34.014,0,0,1-2.553,3.687,37.658,37.658,0,0,1-8.367,7.375,30.756,30.756,0,0,1-10.353,4.538,14.473,14.473,0,0,1-4.255.425,6.216,6.216,0,0,1-2.695-.993c-3.4-2.836-2.553-8.651-1.276-12.622.425-1.276.993-2.411,1.56-3.687a13.319,13.319,0,0,1,1.7-2.553l.567-.567c.425-.425-.425.284,0,0,.142-.142.425-.284.567-.425.567-.567-.567.284.142,0s-.709.284-.142,0-.851.142-.284.142h-.709c.284,0-.284,0-.284-.142.425.284-.142-.142,0-.142s.142.284,0,0a2.016,2.016,0,0,1,.284.851c-.142-.567,0,.425,0,.709s-.284,1.418-.142,1.135a24.337,24.337,0,0,1-3.687,6.807,32.837,32.837,0,0,1-18.437,11.913,9.762,9.762,0,0,1-3.545.284,11.88,11.88,0,0,1-1.418-.284c.567.142-.142-.142-.284-.142a4.661,4.661,0,0,1-.851-.425c-.284-.142.142.142-.142-.142-.142-.142-.425-.284-.567-.567a6.634,6.634,0,0,0-.709-.851,6.88,6.88,0,0,1-1.135-2.978,20.928,20.928,0,0,1,1.7-12.48,5.748,5.748,0,0,1,.709-1.276c.284-.425-.284.284,0,0l.425-.567.425-.425c.142-.142-.567.425-.142.142s.142,0-.142.142c.567-.284.142,0-.284.142a4.824,4.824,0,0,1-1.418.142c.567.142-.567-.142-.142,0h0c.142.142.284.142.284.284h0c0,.142.142.567,0,.142s0,.142,0,.284c-.142.567.142-.425,0,0,0,.142-.142.284-.142.425l-.284.567c-.284.567.284-.284-.142.284l-2.127,2.553c.425-.425-.284.142-.284.284l-.709.709c-.567.425-1.135.993-1.7,1.418a36.318,36.318,0,0,1-3.687,2.836c-2.553,1.844-4.964,3.545-7.091,4.822s-4.113,2.553-6.1,3.829c-.851.567-1.7.993-2.411,1.418-1.135.567-2.553,1.985-1.418,3.262a3.022,3.022,0,0,0,3.829.851Z" transform="translate(-11.14 -1.517)"/><path class="e" d="M249.19,77.158l9.644-5.531a1.343,1.343,0,0,0,.425-1.56,3.63,3.63,0,0,0-1.418-1.844,4.12,4.12,0,0,0-4.538-.709l-9.644,5.531a1.343,1.343,0,0,0-.425,1.56,3.63,3.63,0,0,0,1.418,1.844A4.351,4.351,0,0,0,249.19,77.158Z" transform="translate(44.235 -28.939)"/><path class="e" d="M248.782,87.643l12.764,3.971c1.56.567,2.553-1.276,2.411-2.553a4.62,4.62,0,0,0-2.978-3.971L248.215,81.12c-1.56-.425-2.553,1.276-2.411,2.553a4.925,4.925,0,0,0,2.978,3.971Z" transform="translate(45.352 -23.115)"/></g></g></svg>